<?xml version="1.0" encoding="UTF-8" standalone="no"?>
<!DOCTYPE svg PUBLIC "-//W3C//DTD SVG 1.1//EN"
 "http://www.w3.org/Graphics/SVG/1.1/DTD/svg11.dtd">
<!-- Generated by graphviz version 2.43.0 (0)
 -->
<!-- Title: hints.h Pages: 1 -->
<svg width="1700pt" height="319pt"
 viewBox="0.00 0.00 1700.00 319.00" xmlns="http://www.w3.org/2000/svg" xmlns:xlink="http://www.w3.org/1999/xlink">
<g id="graph0" class="graph" transform="scale(1 1) rotate(0) translate(4 315)">
<title>hints.h</title>
<polygon fill="white" stroke="transparent" points="-4,4 -4,-315 1696,-315 1696,4 -4,4"/>
<!-- Node1 -->
<g id="node1" class="node">
<title>Node1</title>
<g id="a_node1"><a xlink:title=" ">
<polygon fill="#bfbfbf" stroke="black" points="1175,-291.5 1175,-310.5 1225,-310.5 1225,-291.5 1175,-291.5"/>
<text text-anchor="middle" x="1200" y="-298.5" font-family="Helvetica,sans-Serif" font-size="10.00">hints.h</text>
</a>
</g>
</g>
<!-- Node2 -->
<g id="node2" class="node">
<title>Node2</title>
<g id="a_node2"><a xlink:href="spec_2init_8h.html" target="_top" xlink:title=" ">
<polygon fill="white" stroke="black" points="890.5,-235.5 890.5,-254.5 931.5,-254.5 931.5,-235.5 890.5,-235.5"/>
<text text-anchor="middle" x="911" y="-242.5" font-family="Helvetica,sans-Serif" font-size="10.00">init.h</text>
</a>
</g>
</g>
<!-- Node1&#45;&gt;Node2 -->
<g id="edge1" class="edge">
<title>Node1&#45;&gt;Node2</title>
<path fill="none" stroke="midnightblue" d="M1164.94,-293.45C1104,-282.06 980.4,-258.97 931.54,-249.84"/>
<polygon fill="midnightblue" stroke="midnightblue" points="1164.39,-296.91 1174.86,-295.3 1165.67,-290.03 1164.39,-296.91"/>
</g>
<!-- Node6 -->
<g id="node6" class="node">
<title>Node6</title>
<g id="a_node6"><a xlink:href="debug__inlines_8h.html" target="_top" xlink:title=" ">
<polygon fill="white" stroke="black" points="743.5,-67.5 743.5,-86.5 836.5,-86.5 836.5,-67.5 743.5,-67.5"/>
<text text-anchor="middle" x="790" y="-74.5" font-family="Helvetica,sans-Serif" font-size="10.00">debug_inlines.h</text>
</a>
</g>
</g>
<!-- Node1&#45;&gt;Node6 -->
<g id="edge22" class="edge">
<title>Node1&#45;&gt;Node6</title>
<path fill="none" stroke="midnightblue" d="M1165.07,-288.86C1140.73,-280.63 1107.78,-268.53 1080,-255 967.06,-199.97 841.3,-113.98 802.24,-86.65"/>
<polygon fill="midnightblue" stroke="midnightblue" points="1164.01,-292.19 1174.6,-292.03 1166.22,-285.55 1164.01,-292.19"/>
</g>
<!-- Node9 -->
<g id="node9" class="node">
<title>Node9</title>
<g id="a_node9"><a xlink:href="dma__inlines_8h_source.html" target="_top" xlink:title=" ">
<polygon fill="white" stroke="black" points="1109.5,-6 1109.5,-25 1194.5,-25 1194.5,-6 1109.5,-6"/>
<text text-anchor="middle" x="1152" y="-13" font-family="Helvetica,sans-Serif" font-size="10.00">dma_inlines.h</text>
</a>
</g>
</g>
<!-- Node1&#45;&gt;Node9 -->
<g id="edge23" class="edge">
<title>Node1&#45;&gt;Node9</title>
<path fill="none" stroke="midnightblue" d="M1165.4,-287.65C1149.13,-280.34 1130.58,-269.6 1118,-255 1097.9,-231.67 1094,-220.8 1094,-190 1094,-190 1094,-190 1094,-132 1094,-87.8 1128.35,-43.23 1144.18,-25.03"/>
<polygon fill="midnightblue" stroke="midnightblue" points="1164.08,-290.9 1174.66,-291.57 1166.81,-284.45 1164.08,-290.9"/>
</g>
<!-- Node12 -->
<g id="node12" class="node">
<title>Node12</title>
<g id="a_node12"><a xlink:href="packet__inlines_8h.html" target="_top" xlink:title=" ">
<polygon fill="white" stroke="black" points="1212.5,-6 1212.5,-25 1307.5,-25 1307.5,-6 1212.5,-6"/>
<text text-anchor="middle" x="1260" y="-13" font-family="Helvetica,sans-Serif" font-size="10.00">packet_inlines.h</text>
</a>
</g>
</g>
<!-- Node1&#45;&gt;Node12 -->
<g id="edge27" class="edge">
<title>Node1&#45;&gt;Node12</title>
<path fill="none" stroke="midnightblue" d="M1179.18,-285.18C1169.37,-277.24 1158.26,-266.68 1151,-255 1135.11,-229.44 1132,-220.1 1132,-190 1132,-190 1132,-190 1132,-132 1132,-76.18 1199.93,-40.39 1236.82,-25.07"/>
<polygon fill="midnightblue" stroke="midnightblue" points="1177.27,-288.13 1187.33,-291.46 1181.54,-282.58 1177.27,-288.13"/>
</g>
<!-- Node20 -->
<g id="node20" class="node">
<title>Node20</title>
<g id="a_node20"><a xlink:href="cpu__inlines_8h_source.html" target="_top" xlink:title=" ">
<polygon fill="white" stroke="black" points="1160,-235.5 1160,-254.5 1240,-254.5 1240,-235.5 1160,-235.5"/>
<text text-anchor="middle" x="1200" y="-242.5" font-family="Helvetica,sans-Serif" font-size="10.00">cpu_inlines.h</text>
</a>
</g>
</g>
<!-- Node1&#45;&gt;Node20 -->
<g id="edge21" class="edge">
<title>Node1&#45;&gt;Node20</title>
<path fill="none" stroke="midnightblue" d="M1200,-280.8C1200,-271.91 1200,-261.78 1200,-254.75"/>
<polygon fill="midnightblue" stroke="midnightblue" points="1196.5,-281.08 1200,-291.08 1203.5,-281.08 1196.5,-281.08"/>
</g>
<!-- Node21 -->
<g id="node21" class="node">
<title>Node21</title>
<g id="a_node21"><a xlink:href="event__validation__external_8h.html" target="_top" xlink:title=" ">
<polygon fill="white" stroke="black" points="1258.5,-235.5 1258.5,-254.5 1411.5,-254.5 1411.5,-235.5 1258.5,-235.5"/>
<text text-anchor="middle" x="1335" y="-242.5" font-family="Helvetica,sans-Serif" font-size="10.00">event_validation_external.h</text>
</a>
</g>
</g>
<!-- Node1&#45;&gt;Node21 -->
<g id="edge24" class="edge">
<title>Node1&#45;&gt;Node21</title>
<path fill="none" stroke="midnightblue" d="M1230.91,-287.64C1256.24,-277.5 1291.43,-263.43 1313.71,-254.52"/>
<polygon fill="midnightblue" stroke="midnightblue" points="1229.38,-284.48 1221.39,-291.44 1231.98,-290.98 1229.38,-284.48"/>
</g>
<!-- Node22 -->
<g id="node22" class="node">
<title>Node22</title>
<g id="a_node22"><a xlink:href="queue__inlines_8h_source.html" target="_top" xlink:title=" ">
<polygon fill="white" stroke="black" points="1340.5,-179.5 1340.5,-198.5 1433.5,-198.5 1433.5,-179.5 1340.5,-179.5"/>
<text text-anchor="middle" x="1387" y="-186.5" font-family="Helvetica,sans-Serif" font-size="10.00">queue_inlines.h</text>
</a>
</g>
</g>
<!-- Node1&#45;&gt;Node22 -->
<g id="edge28" class="edge">
<title>Node1&#45;&gt;Node22</title>
<path fill="none" stroke="midnightblue" d="M1235.36,-298.07C1291.72,-294.18 1397.96,-283.2 1421,-255 1435.66,-237.05 1412.29,-211.77 1397.56,-198.65"/>
<polygon fill="midnightblue" stroke="midnightblue" points="1234.87,-294.6 1225.12,-298.74 1235.32,-301.58 1234.87,-294.6"/>
</g>
<!-- Node23 -->
<g id="node23" class="node">
<title>Node23</title>
<g id="a_node23"><a xlink:href="packet__flag__inlines_8h.html" target="_top" xlink:title=" ">
<polygon fill="white" stroke="black" points="1468.5,-235.5 1468.5,-254.5 1587.5,-254.5 1587.5,-235.5 1468.5,-235.5"/>
<text text-anchor="middle" x="1528" y="-242.5" font-family="Helvetica,sans-Serif" font-size="10.00">packet_flag_inlines.h</text>
</a>
</g>
</g>
<!-- Node1&#45;&gt;Node23 -->
<g id="edge26" class="edge">
<title>Node1&#45;&gt;Node23</title>
<path fill="none" stroke="midnightblue" d="M1235.33,-294.18C1293.34,-284.63 1409.02,-265.59 1476.27,-254.52"/>
<polygon fill="midnightblue" stroke="midnightblue" points="1234.49,-290.77 1225.19,-295.85 1235.63,-297.68 1234.49,-290.77"/>
</g>
<!-- Node24 -->
<g id="node24" class="node">
<title>Node24</title>
<g id="a_node24"><a xlink:href="time__inlines_8h_source.html" target="_top" xlink:title=" ">
<polygon fill="white" stroke="black" points="1606,-235.5 1606,-254.5 1692,-254.5 1692,-235.5 1606,-235.5"/>
<text text-anchor="middle" x="1649" y="-242.5" font-family="Helvetica,sans-Serif" font-size="10.00">time_inlines.h</text>
</a>
</g>
</g>
<!-- Node1&#45;&gt;Node24 -->
<g id="edge29" class="edge">
<title>Node1&#45;&gt;Node24</title>
<path fill="none" stroke="midnightblue" d="M1235.52,-296.68C1305.08,-290.02 1464.04,-274.03 1597,-255 1599.9,-254.58 1602.89,-254.13 1605.9,-253.66"/>
<polygon fill="midnightblue" stroke="midnightblue" points="1234.77,-293.23 1225.15,-297.67 1235.43,-300.2 1234.77,-293.23"/>
</g>
<!-- Node3 -->
<g id="node3" class="node">
<title>Node3</title>
<g id="a_node3"><a xlink:href="init_8h.html" target="_top" xlink:title=" ">
<polygon fill="white" stroke="black" points="736.5,-179.5 736.5,-198.5 777.5,-198.5 777.5,-179.5 736.5,-179.5"/>
<text text-anchor="middle" x="757" y="-186.5" font-family="Helvetica,sans-Serif" font-size="10.00">init.h</text>
</a>
</g>
</g>
<!-- Node2&#45;&gt;Node3 -->
<g id="edge2" class="edge">
<title>Node2&#45;&gt;Node3</title>
<path fill="none" stroke="midnightblue" d="M880.58,-233.33C850.23,-222.69 804.42,-206.63 777.93,-197.34"/>
<polygon fill="midnightblue" stroke="midnightblue" points="879.64,-236.71 890.23,-236.72 881.95,-230.11 879.64,-236.71"/>
</g>
<!-- Node4 -->
<g id="node4" class="node">
<title>Node4</title>
<g id="a_node4"><a xlink:href="spec_2shared__memory_8h.html" target="_top" xlink:title=" ">
<polygon fill="white" stroke="black" points="527,-123.5 527,-142.5 631,-142.5 631,-123.5 527,-123.5"/>
<text text-anchor="middle" x="579" y="-130.5" font-family="Helvetica,sans-Serif" font-size="10.00">shared_memory.h</text>
</a>
</g>
</g>
<!-- Node3&#45;&gt;Node4 -->
<g id="edge3" class="edge">
<title>Node3&#45;&gt;Node4</title>
<path fill="none" stroke="midnightblue" d="M726.53,-178.76C693.07,-168.61 639.78,-152.44 607.24,-142.57"/>
<polygon fill="midnightblue" stroke="midnightblue" points="725.65,-182.15 736.23,-181.7 727.68,-175.45 725.65,-182.15"/>
</g>
<!-- Node3&#45;&gt;Node6 -->
<g id="edge5" class="edge">
<title>Node3&#45;&gt;Node6</title>
<path fill="none" stroke="midnightblue" d="M787.14,-176.82C801.98,-169.6 818.48,-158.6 827,-143 838.08,-122.71 815.86,-99.21 801.3,-86.78"/>
<polygon fill="midnightblue" stroke="midnightblue" points="785.43,-173.75 777.72,-181.03 788.28,-180.14 785.43,-173.75"/>
</g>
<!-- Node18 -->
<g id="node18" class="node">
<title>Node18</title>
<g id="a_node18"><a xlink:href="thread__inline__types_8h_source.html" target="_top" xlink:title=" ">
<polygon fill="white" stroke="black" points="696,-123.5 696,-142.5 818,-142.5 818,-123.5 696,-123.5"/>
<text text-anchor="middle" x="757" y="-130.5" font-family="Helvetica,sans-Serif" font-size="10.00">thread_inline_types.h</text>
</a>
</g>
</g>
<!-- Node3&#45;&gt;Node18 -->
<g id="edge17" class="edge">
<title>Node3&#45;&gt;Node18</title>
<path fill="none" stroke="midnightblue" d="M757,-168.8C757,-159.91 757,-149.78 757,-142.75"/>
<polygon fill="midnightblue" stroke="midnightblue" points="753.5,-169.08 757,-179.08 760.5,-169.08 753.5,-169.08"/>
</g>
<!-- Node19 -->
<g id="node19" class="node">
<title>Node19</title>
<g id="a_node19"><a xlink:href="thread__inlines_8h_source.html" target="_top" xlink:title=" ">
<polygon fill="white" stroke="black" points="630.5,-67.5 630.5,-86.5 725.5,-86.5 725.5,-67.5 630.5,-67.5"/>
<text text-anchor="middle" x="678" y="-74.5" font-family="Helvetica,sans-Serif" font-size="10.00">thread_inlines.h</text>
</a>
</g>
</g>
<!-- Node3&#45;&gt;Node19 -->
<g id="edge20" class="edge">
<title>Node3&#45;&gt;Node19</title>
<path fill="none" stroke="midnightblue" d="M727.13,-176.02C712.67,-168.66 696.44,-157.78 687,-143 675.84,-125.53 676,-100.05 677.02,-86.77"/>
<polygon fill="midnightblue" stroke="midnightblue" points="725.75,-179.24 736.28,-180.35 728.74,-172.91 725.75,-179.24"/>
</g>
<!-- Node5 -->
<g id="node5" class="node">
<title>Node5</title>
<g id="a_node5"><a xlink:href="shared__memory_8h.html" target="_top" xlink:title=" ">
<polygon fill="white" stroke="black" points="508,-67.5 508,-86.5 612,-86.5 612,-67.5 508,-67.5"/>
<text text-anchor="middle" x="560" y="-74.5" font-family="Helvetica,sans-Serif" font-size="10.00">shared_memory.h</text>
</a>
</g>
</g>
<!-- Node4&#45;&gt;Node5 -->
<g id="edge4" class="edge">
<title>Node4&#45;&gt;Node5</title>
<path fill="none" stroke="midnightblue" d="M572.45,-113.4C569.28,-104.36 565.61,-93.94 563.08,-86.75"/>
<polygon fill="midnightblue" stroke="midnightblue" points="569.24,-114.81 575.86,-123.08 575.85,-112.49 569.24,-114.81"/>
</g>
<!-- Node7 -->
<g id="node7" class="node">
<title>Node7</title>
<g id="a_node7"><a xlink:href="buffer__inlines_8h_source.html" target="_top" xlink:title=" ">
<polygon fill="white" stroke="black" points="522,-6 522,-25 614,-25 614,-6 522,-6"/>
<text text-anchor="middle" x="568" y="-13" font-family="Helvetica,sans-Serif" font-size="10.00">buffer_inlines.h</text>
</a>
</g>
</g>
<!-- Node6&#45;&gt;Node7 -->
<g id="edge6" class="edge">
<title>Node6&#45;&gt;Node7</title>
<path fill="none" stroke="midnightblue" d="M748.3,-64.82C705.17,-53.26 638.79,-35.47 599.75,-25.01"/>
<polygon fill="midnightblue" stroke="midnightblue" points="747.63,-68.27 758.19,-67.48 749.44,-61.51 747.63,-68.27"/>
</g>
<!-- Node8 -->
<g id="node8" class="node">
<title>Node8</title>
<g id="a_node8"><a xlink:href="crypto__inlines_8h_source.html" target="_top" xlink:title=" ">
<polygon fill="white" stroke="black" points="632,-6 632,-25 726,-25 726,-6 632,-6"/>
<text text-anchor="middle" x="679" y="-13" font-family="Helvetica,sans-Serif" font-size="10.00">crypto_inlines.h</text>
</a>
</g>
</g>
<!-- Node6&#45;&gt;Node8 -->
<g id="edge7" class="edge">
<title>Node6&#45;&gt;Node8</title>
<path fill="none" stroke="midnightblue" d="M765.21,-62.71C743.71,-51.19 713.24,-34.86 694.87,-25.01"/>
<polygon fill="midnightblue" stroke="midnightblue" points="763.63,-65.84 774.1,-67.48 766.94,-59.67 763.63,-65.84"/>
</g>
<!-- Node6&#45;&gt;Node9 -->
<g id="edge8" class="edge">
<title>Node6&#45;&gt;Node9</title>
<path fill="none" stroke="midnightblue" d="M846.58,-69.99C909.02,-62.84 1012.3,-49.51 1100,-31 1107.79,-29.35 1116.15,-27.2 1123.82,-25.06"/>
<polygon fill="midnightblue" stroke="midnightblue" points="846.09,-66.52 836.54,-71.12 846.87,-73.48 846.09,-66.52"/>
</g>
<!-- Node10 -->
<g id="node10" class="node">
<title>Node10</title>
<g id="a_node10"><a xlink:href="event__inlines_8h_source.html" target="_top" xlink:title=" ">
<polygon fill="white" stroke="black" points="744.5,-6 744.5,-25 835.5,-25 835.5,-6 744.5,-6"/>
<text text-anchor="middle" x="790" y="-13" font-family="Helvetica,sans-Serif" font-size="10.00">event_inlines.h</text>
</a>
</g>
</g>
<!-- Node6&#45;&gt;Node10 -->
<g id="edge9" class="edge">
<title>Node6&#45;&gt;Node10</title>
<path fill="none" stroke="midnightblue" d="M790,-57.32C790,-46.5 790,-33.4 790,-25.01"/>
<polygon fill="midnightblue" stroke="midnightblue" points="786.5,-57.48 790,-67.48 793.5,-57.48 786.5,-57.48"/>
</g>
<!-- Node11 -->
<g id="node11" class="node">
<title>Node11</title>
<g id="a_node11"><a xlink:href="ipsec__inlines_8h_source.html" target="_top" xlink:title=" ">
<polygon fill="white" stroke="black" points="853.5,-6 853.5,-25 942.5,-25 942.5,-6 853.5,-6"/>
<text text-anchor="middle" x="898" y="-13" font-family="Helvetica,sans-Serif" font-size="10.00">ipsec_inlines.h</text>
</a>
</g>
</g>
<!-- Node6&#45;&gt;Node11 -->
<g id="edge10" class="edge">
<title>Node6&#45;&gt;Node11</title>
<path fill="none" stroke="midnightblue" d="M814.4,-62.56C835.3,-51.04 864.76,-34.81 882.55,-25.01"/>
<polygon fill="midnightblue" stroke="midnightblue" points="812.54,-59.58 805.47,-67.48 815.92,-65.72 812.54,-59.58"/>
</g>
<!-- Node6&#45;&gt;Node12 -->
<g id="edge11" class="edge">
<title>Node6&#45;&gt;Node12</title>
<path fill="none" stroke="midnightblue" d="M847.11,-72.33C927.14,-66.6 1077,-53.77 1203,-31 1211.74,-29.42 1221.13,-27.24 1229.7,-25.05"/>
<polygon fill="midnightblue" stroke="midnightblue" points="846.49,-68.86 836.76,-73.06 846.98,-75.84 846.49,-68.86"/>
</g>
<!-- Node13 -->
<g id="node13" class="node">
<title>Node13</title>
<g id="a_node13"><a xlink:href="packet__vector__inlines_8h.html" target="_top" xlink:title=" ">
<polygon fill="white" stroke="black" points="960.5,-6 960.5,-25 1091.5,-25 1091.5,-6 960.5,-6"/>
<text text-anchor="middle" x="1026" y="-13" font-family="Helvetica,sans-Serif" font-size="10.00">packet_vector_inlines.h</text>
</a>
</g>
</g>
<!-- Node6&#45;&gt;Node13 -->
<g id="edge12" class="edge">
<title>Node6&#45;&gt;Node13</title>
<path fill="none" stroke="midnightblue" d="M833.76,-64.97C879.58,-53.41 950.57,-35.52 992.25,-25.01"/>
<polygon fill="midnightblue" stroke="midnightblue" points="832.65,-61.64 823.81,-67.48 834.37,-68.42 832.65,-61.64"/>
</g>
<!-- Node14 -->
<g id="node14" class="node">
<title>Node14</title>
<g id="a_node14"><a xlink:href="rwlock__recursive__inlines_8h_source.html" target="_top" xlink:title=" ">
<polygon fill="white" stroke="black" points="0,-6 0,-25 146,-25 146,-6 0,-6"/>
<text text-anchor="middle" x="73" y="-13" font-family="Helvetica,sans-Serif" font-size="10.00">rwlock_recursive_inlines.h</text>
</a>
</g>
</g>
<!-- Node6&#45;&gt;Node14 -->
<g id="edge13" class="edge">
<title>Node6&#45;&gt;Node14</title>
<path fill="none" stroke="midnightblue" d="M733.28,-67.04C476.02,-39.09 407.77,-61.11 155,-31 142.22,-29.48 128.42,-27.26 115.85,-25.02"/>
<polygon fill="midnightblue" stroke="midnightblue" points="732.97,-70.53 743.3,-68.15 733.74,-63.57 732.97,-70.53"/>
</g>
<!-- Node15 -->
<g id="node15" class="node">
<title>Node15</title>
<g id="a_node15"><a xlink:href="schedule__inlines_8h_source.html" target="_top" xlink:title=" ">
<polygon fill="white" stroke="black" points="164.5,-6 164.5,-25 271.5,-25 271.5,-6 164.5,-6"/>
<text text-anchor="middle" x="218" y="-13" font-family="Helvetica,sans-Serif" font-size="10.00">schedule_inlines.h</text>
</a>
</g>
</g>
<!-- Node6&#45;&gt;Node15 -->
<g id="edge14" class="edge">
<title>Node6&#45;&gt;Node15</title>
<path fill="none" stroke="midnightblue" d="M733.25,-67.02C531.28,-43.53 476.78,-61.63 280,-31 270.28,-29.49 259.82,-27.27 250.32,-25.03"/>
<polygon fill="midnightblue" stroke="midnightblue" points="732.95,-70.51 743.29,-68.21 733.77,-63.55 732.95,-70.51"/>
</g>
<!-- Node16 -->
<g id="node16" class="node">
<title>Node16</title>
<g id="a_node16"><a xlink:href="spinlock__recursive__inlines_8h_source.html" target="_top" xlink:title=" ">
<polygon fill="white" stroke="black" points="289.5,-0.5 289.5,-30.5 396.5,-30.5 396.5,-0.5 289.5,-0.5"/>
<text text-anchor="start" x="297.5" y="-18.5" font-family="Helvetica,sans-Serif" font-size="10.00">spinlock_recursive</text>
<text text-anchor="middle" x="343" y="-7.5" font-family="Helvetica,sans-Serif" font-size="10.00">_inlines.h</text>
</a>
</g>
</g>
<!-- Node6&#45;&gt;Node16 -->
<g id="edge15" class="edge">
<title>Node6&#45;&gt;Node16</title>
<path fill="none" stroke="midnightblue" d="M733,-66.94C586.46,-47.69 546.73,-55.24 405,-31 402.28,-30.53 399.49,-30.02 396.69,-29.47"/>
<polygon fill="midnightblue" stroke="midnightblue" points="732.9,-70.46 743.28,-68.31 733.83,-63.52 732.9,-70.46"/>
</g>
<!-- Node17 -->
<g id="node17" class="node">
<title>Node17</title>
<g id="a_node17"><a xlink:href="timer__inlines_8h_source.html" target="_top" xlink:title=" ">
<polygon fill="white" stroke="black" points="414.5,-6 414.5,-25 503.5,-25 503.5,-6 414.5,-6"/>
<text text-anchor="middle" x="459" y="-13" font-family="Helvetica,sans-Serif" font-size="10.00">timer_inlines.h</text>
</a>
</g>
</g>
<!-- Node6&#45;&gt;Node17 -->
<g id="edge16" class="edge">
<title>Node6&#45;&gt;Node17</title>
<path fill="none" stroke="midnightblue" d="M732.89,-66.8C653.37,-53.97 518.36,-32.15 513,-31 505.03,-29.29 496.47,-27.14 488.58,-25.02"/>
<polygon fill="midnightblue" stroke="midnightblue" points="732.81,-70.33 743.24,-68.47 733.93,-63.42 732.81,-70.33"/>
</g>
<!-- Node18&#45;&gt;Node6 -->
<g id="edge18" class="edge">
<title>Node18&#45;&gt;Node6</title>
<path fill="none" stroke="midnightblue" d="M767.83,-114.27C773.47,-105.05 780.12,-94.17 784.65,-86.75"/>
<polygon fill="midnightblue" stroke="midnightblue" points="764.68,-112.73 762.45,-123.08 770.65,-116.38 764.68,-112.73"/>
</g>
<!-- Node18&#45;&gt;Node19 -->
<g id="edge19" class="edge">
<title>Node18&#45;&gt;Node19</title>
<path fill="none" stroke="midnightblue" d="M735.97,-117.62C721.53,-107.76 702.86,-94.99 690.66,-86.65"/>
<polygon fill="midnightblue" stroke="midnightblue" points="734.08,-120.57 744.31,-123.32 738.03,-114.79 734.08,-120.57"/>
</g>
<!-- Node21&#45;&gt;Node22 -->
<g id="edge25" class="edge">
<title>Node21&#45;&gt;Node22</title>
<path fill="none" stroke="midnightblue" d="M1350.68,-227.72C1359.84,-218.2 1371.05,-206.56 1378.57,-198.75"/>
<polygon fill="midnightblue" stroke="midnightblue" points="1348,-225.45 1343.59,-235.08 1353.04,-230.31 1348,-225.45"/>
</g>
</g>
</svg>
