<?xml version="1.0" encoding="UTF-8" standalone="no"?>
<!DOCTYPE svg PUBLIC "-//W3C//DTD SVG 1.1//EN"
 "http://www.w3.org/Graphics/SVG/1.1/DTD/svg11.dtd">
<!-- Generated by graphviz version 2.43.0 (0)
 -->
<!-- Title: init.h Pages: 1 -->
<svg width="1316pt" height="263pt"
 viewBox="0.00 0.00 1315.50 263.00" xmlns="http://www.w3.org/2000/svg" xmlns:xlink="http://www.w3.org/1999/xlink">
<g id="graph0" class="graph" transform="scale(1 1) rotate(0) translate(4 259)">
<title>init.h</title>
<polygon fill="white" stroke="transparent" points="-4,4 -4,-259 1311.5,-259 1311.5,4 -4,4"/>
<!-- Node1 -->
<g id="node1" class="node">
<title>Node1</title>
<g id="a_node1"><a xlink:title=" ">
<polygon fill="#bfbfbf" stroke="black" points="561.5,-235.5 561.5,-254.5 602.5,-254.5 602.5,-235.5 561.5,-235.5"/>
<text text-anchor="middle" x="582" y="-242.5" font-family="Helvetica,sans-Serif" font-size="10.00">init.h</text>
</a>
</g>
</g>
<!-- Node2 -->
<g id="node2" class="node">
<title>Node2</title>
<g id="a_node2"><a xlink:href="init_8h.html" target="_top" xlink:title=" ">
<polygon fill="white" stroke="black" points="561.5,-179.5 561.5,-198.5 602.5,-198.5 602.5,-179.5 561.5,-179.5"/>
<text text-anchor="middle" x="582" y="-186.5" font-family="Helvetica,sans-Serif" font-size="10.00">init.h</text>
</a>
</g>
</g>
<!-- Node1&#45;&gt;Node2 -->
<g id="edge1" class="edge">
<title>Node1&#45;&gt;Node2</title>
<path fill="none" stroke="midnightblue" d="M582,-224.8C582,-215.91 582,-205.78 582,-198.75"/>
<polygon fill="midnightblue" stroke="midnightblue" points="578.5,-225.08 582,-235.08 585.5,-225.08 578.5,-225.08"/>
</g>
<!-- Node3 -->
<g id="node3" class="node">
<title>Node3</title>
<g id="a_node3"><a xlink:href="spec_2shared__memory_8h.html" target="_top" xlink:title=" ">
<polygon fill="white" stroke="black" points="406,-123.5 406,-142.5 510,-142.5 510,-123.5 406,-123.5"/>
<text text-anchor="middle" x="458" y="-130.5" font-family="Helvetica,sans-Serif" font-size="10.00">shared_memory.h</text>
</a>
</g>
</g>
<!-- Node2&#45;&gt;Node3 -->
<g id="edge2" class="edge">
<title>Node2&#45;&gt;Node3</title>
<path fill="none" stroke="midnightblue" d="M552.99,-175.37C529.77,-165.26 497.84,-151.35 477.56,-142.52"/>
<polygon fill="midnightblue" stroke="midnightblue" points="551.79,-178.66 562.35,-179.44 554.58,-172.24 551.79,-178.66"/>
</g>
<!-- Node5 -->
<g id="node5" class="node">
<title>Node5</title>
<g id="a_node5"><a xlink:href="debug__inlines_8h.html" target="_top" xlink:title=" ">
<polygon fill="white" stroke="black" points="542.5,-67.5 542.5,-86.5 635.5,-86.5 635.5,-67.5 542.5,-67.5"/>
<text text-anchor="middle" x="589" y="-74.5" font-family="Helvetica,sans-Serif" font-size="10.00">debug_inlines.h</text>
</a>
</g>
</g>
<!-- Node2&#45;&gt;Node5 -->
<g id="edge4" class="edge">
<title>Node2&#45;&gt;Node5</title>
<path fill="none" stroke="midnightblue" d="M568.65,-170.88C560.19,-157.88 551.73,-139.5 557,-123 561.55,-108.75 572.44,-95.16 580.25,-86.71"/>
<polygon fill="midnightblue" stroke="midnightblue" points="565.98,-173.16 574.63,-179.28 571.69,-169.11 565.98,-173.16"/>
</g>
<!-- Node17 -->
<g id="node17" class="node">
<title>Node17</title>
<g id="a_node17"><a xlink:href="thread__inline__types_8h_source.html" target="_top" xlink:title=" ">
<polygon fill="white" stroke="black" points="566,-123.5 566,-142.5 688,-142.5 688,-123.5 566,-123.5"/>
<text text-anchor="middle" x="627" y="-130.5" font-family="Helvetica,sans-Serif" font-size="10.00">thread_inline_types.h</text>
</a>
</g>
</g>
<!-- Node2&#45;&gt;Node17 -->
<g id="edge16" class="edge">
<title>Node2&#45;&gt;Node17</title>
<path fill="none" stroke="midnightblue" d="M596.05,-171.14C603.89,-161.74 613.33,-150.4 619.71,-142.75"/>
<polygon fill="midnightblue" stroke="midnightblue" points="593.14,-169.16 589.43,-179.08 598.52,-173.64 593.14,-169.16"/>
</g>
<!-- Node18 -->
<g id="node18" class="node">
<title>Node18</title>
<g id="a_node18"><a xlink:href="thread__inlines_8h_source.html" target="_top" xlink:title=" ">
<polygon fill="white" stroke="black" points="660.5,-67.5 660.5,-86.5 755.5,-86.5 755.5,-67.5 660.5,-67.5"/>
<text text-anchor="middle" x="708" y="-74.5" font-family="Helvetica,sans-Serif" font-size="10.00">thread_inlines.h</text>
</a>
</g>
</g>
<!-- Node2&#45;&gt;Node18 -->
<g id="edge19" class="edge">
<title>Node2&#45;&gt;Node18</title>
<path fill="none" stroke="midnightblue" d="M612.5,-184.42C638.97,-179.64 676.22,-168.55 697,-143 710.29,-126.66 710.16,-100.23 709.03,-86.66"/>
<polygon fill="midnightblue" stroke="midnightblue" points="611.91,-180.97 602.59,-186.02 613.02,-187.89 611.91,-180.97"/>
</g>
<!-- Node4 -->
<g id="node4" class="node">
<title>Node4</title>
<g id="a_node4"><a xlink:href="shared__memory_8h.html" target="_top" xlink:title=" ">
<polygon fill="white" stroke="black" points="406,-67.5 406,-86.5 510,-86.5 510,-67.5 406,-67.5"/>
<text text-anchor="middle" x="458" y="-74.5" font-family="Helvetica,sans-Serif" font-size="10.00">shared_memory.h</text>
</a>
</g>
</g>
<!-- Node3&#45;&gt;Node4 -->
<g id="edge3" class="edge">
<title>Node3&#45;&gt;Node4</title>
<path fill="none" stroke="midnightblue" d="M458,-112.8C458,-103.91 458,-93.78 458,-86.75"/>
<polygon fill="midnightblue" stroke="midnightblue" points="454.5,-113.08 458,-123.08 461.5,-113.08 454.5,-113.08"/>
</g>
<!-- Node6 -->
<g id="node6" class="node">
<title>Node6</title>
<g id="a_node6"><a xlink:href="buffer__inlines_8h_source.html" target="_top" xlink:title=" ">
<polygon fill="white" stroke="black" points="0,-6 0,-25 92,-25 92,-6 0,-6"/>
<text text-anchor="middle" x="46" y="-13" font-family="Helvetica,sans-Serif" font-size="10.00">buffer_inlines.h</text>
</a>
</g>
</g>
<!-- Node5&#45;&gt;Node6 -->
<g id="edge5" class="edge">
<title>Node5&#45;&gt;Node6</title>
<path fill="none" stroke="midnightblue" d="M532.05,-68.48C527.64,-67.95 523.25,-67.46 519,-67 333.6,-47.11 284.72,-62.89 101,-31 92.34,-29.5 83.05,-27.29 74.62,-25.04"/>
<polygon fill="midnightblue" stroke="midnightblue" points="531.99,-71.99 542.34,-69.72 532.84,-65.05 531.99,-71.99"/>
</g>
<!-- Node7 -->
<g id="node7" class="node">
<title>Node7</title>
<g id="a_node7"><a xlink:href="crypto__inlines_8h_source.html" target="_top" xlink:title=" ">
<polygon fill="white" stroke="black" points="110,-6 110,-25 204,-25 204,-6 110,-6"/>
<text text-anchor="middle" x="157" y="-13" font-family="Helvetica,sans-Serif" font-size="10.00">crypto_inlines.h</text>
</a>
</g>
</g>
<!-- Node5&#45;&gt;Node7 -->
<g id="edge6" class="edge">
<title>Node5&#45;&gt;Node7</title>
<path fill="none" stroke="midnightblue" d="M532.04,-68.62C527.63,-68.07 523.24,-67.52 519,-67 383.09,-50.27 347.6,-56.22 213,-31 204.41,-29.39 195.19,-27.2 186.77,-25.01"/>
<polygon fill="midnightblue" stroke="midnightblue" points="531.96,-72.14 542.32,-69.93 532.84,-65.2 531.96,-72.14"/>
</g>
<!-- Node8 -->
<g id="node8" class="node">
<title>Node8</title>
<g id="a_node8"><a xlink:href="dma__inlines_8h_source.html" target="_top" xlink:title=" ">
<polygon fill="white" stroke="black" points="222.5,-6 222.5,-25 307.5,-25 307.5,-6 222.5,-6"/>
<text text-anchor="middle" x="265" y="-13" font-family="Helvetica,sans-Serif" font-size="10.00">dma_inlines.h</text>
</a>
</g>
</g>
<!-- Node5&#45;&gt;Node8 -->
<g id="edge7" class="edge">
<title>Node5&#45;&gt;Node8</title>
<path fill="none" stroke="midnightblue" d="M532.34,-68.58C476.87,-60.86 390.14,-47.59 316,-31 308.45,-29.31 300.37,-27.17 292.91,-25.05"/>
<polygon fill="midnightblue" stroke="midnightblue" points="531.93,-72.05 542.32,-69.95 532.89,-65.12 531.93,-72.05"/>
</g>
<!-- Node9 -->
<g id="node9" class="node">
<title>Node9</title>
<g id="a_node9"><a xlink:href="event__inlines_8h_source.html" target="_top" xlink:title=" ">
<polygon fill="white" stroke="black" points="325.5,-6 325.5,-25 416.5,-25 416.5,-6 325.5,-6"/>
<text text-anchor="middle" x="371" y="-13" font-family="Helvetica,sans-Serif" font-size="10.00">event_inlines.h</text>
</a>
</g>
</g>
<!-- Node5&#45;&gt;Node9 -->
<g id="edge8" class="edge">
<title>Node5&#45;&gt;Node9</title>
<path fill="none" stroke="midnightblue" d="M548.05,-64.82C505.7,-53.26 440.52,-35.47 402.18,-25.01"/>
<polygon fill="midnightblue" stroke="midnightblue" points="547.2,-68.22 557.77,-67.48 549.04,-61.47 547.2,-68.22"/>
</g>
<!-- Node10 -->
<g id="node10" class="node">
<title>Node10</title>
<g id="a_node10"><a xlink:href="ipsec__inlines_8h_source.html" target="_top" xlink:title=" ">
<polygon fill="white" stroke="black" points="434.5,-6 434.5,-25 523.5,-25 523.5,-6 434.5,-6"/>
<text text-anchor="middle" x="479" y="-13" font-family="Helvetica,sans-Serif" font-size="10.00">ipsec_inlines.h</text>
</a>
</g>
</g>
<!-- Node5&#45;&gt;Node10 -->
<g id="edge9" class="edge">
<title>Node5&#45;&gt;Node10</title>
<path fill="none" stroke="midnightblue" d="M564.43,-62.71C543.13,-51.19 512.93,-34.86 494.73,-25.01"/>
<polygon fill="midnightblue" stroke="midnightblue" points="562.78,-65.8 573.24,-67.48 566.11,-59.64 562.78,-65.8"/>
</g>
<!-- Node11 -->
<g id="node11" class="node">
<title>Node11</title>
<g id="a_node11"><a xlink:href="packet__inlines_8h.html" target="_top" xlink:title=" ">
<polygon fill="white" stroke="black" points="541.5,-6 541.5,-25 636.5,-25 636.5,-6 541.5,-6"/>
<text text-anchor="middle" x="589" y="-13" font-family="Helvetica,sans-Serif" font-size="10.00">packet_inlines.h</text>
</a>
</g>
</g>
<!-- Node5&#45;&gt;Node11 -->
<g id="edge10" class="edge">
<title>Node5&#45;&gt;Node11</title>
<path fill="none" stroke="midnightblue" d="M589,-57.32C589,-46.5 589,-33.4 589,-25.01"/>
<polygon fill="midnightblue" stroke="midnightblue" points="585.5,-57.48 589,-67.48 592.5,-57.48 585.5,-57.48"/>
</g>
<!-- Node12 -->
<g id="node12" class="node">
<title>Node12</title>
<g id="a_node12"><a xlink:href="packet__vector__inlines_8h.html" target="_top" xlink:title=" ">
<polygon fill="white" stroke="black" points="654.5,-6 654.5,-25 785.5,-25 785.5,-6 654.5,-6"/>
<text text-anchor="middle" x="720" y="-13" font-family="Helvetica,sans-Serif" font-size="10.00">packet_vector_inlines.h</text>
</a>
</g>
</g>
<!-- Node5&#45;&gt;Node12 -->
<g id="edge11" class="edge">
<title>Node5&#45;&gt;Node12</title>
<path fill="none" stroke="midnightblue" d="M616.9,-63.33C642.33,-51.78 679.2,-35.03 701.27,-25.01"/>
<polygon fill="midnightblue" stroke="midnightblue" points="615.43,-60.15 607.77,-67.48 618.32,-66.53 615.43,-60.15"/>
</g>
<!-- Node13 -->
<g id="node13" class="node">
<title>Node13</title>
<g id="a_node13"><a xlink:href="rwlock__recursive__inlines_8h_source.html" target="_top" xlink:title=" ">
<polygon fill="white" stroke="black" points="804,-6 804,-25 950,-25 950,-6 804,-6"/>
<text text-anchor="middle" x="877" y="-13" font-family="Helvetica,sans-Serif" font-size="10.00">rwlock_recursive_inlines.h</text>
</a>
</g>
</g>
<!-- Node5&#45;&gt;Node13 -->
<g id="edge12" class="edge">
<title>Node5&#45;&gt;Node13</title>
<path fill="none" stroke="midnightblue" d="M640.3,-65.4C696.13,-53.87 784.31,-35.65 835.81,-25.01"/>
<polygon fill="midnightblue" stroke="midnightblue" points="639.35,-62.02 630.26,-67.48 640.76,-68.88 639.35,-62.02"/>
</g>
<!-- Node14 -->
<g id="node14" class="node">
<title>Node14</title>
<g id="a_node14"><a xlink:href="schedule__inlines_8h_source.html" target="_top" xlink:title=" ">
<polygon fill="white" stroke="black" points="968.5,-6 968.5,-25 1075.5,-25 1075.5,-6 968.5,-6"/>
<text text-anchor="middle" x="1022" y="-13" font-family="Helvetica,sans-Serif" font-size="10.00">schedule_inlines.h</text>
</a>
</g>
</g>
<!-- Node5&#45;&gt;Node14 -->
<g id="edge13" class="edge">
<title>Node5&#45;&gt;Node14</title>
<path fill="none" stroke="midnightblue" d="M645.74,-67.83C647.85,-67.54 649.95,-67.27 652,-67 788.23,-49.28 823.64,-54.44 959,-31 968.51,-29.35 978.74,-27.18 988.13,-25.01"/>
<polygon fill="midnightblue" stroke="midnightblue" points="645.21,-64.37 635.77,-69.18 646.15,-71.3 645.21,-64.37"/>
</g>
<!-- Node15 -->
<g id="node15" class="node">
<title>Node15</title>
<g id="a_node15"><a xlink:href="spinlock__recursive__inlines_8h_source.html" target="_top" xlink:title=" ">
<polygon fill="white" stroke="black" points="1093.5,-0.5 1093.5,-30.5 1200.5,-30.5 1200.5,-0.5 1093.5,-0.5"/>
<text text-anchor="start" x="1101.5" y="-18.5" font-family="Helvetica,sans-Serif" font-size="10.00">spinlock_recursive</text>
<text text-anchor="middle" x="1147" y="-7.5" font-family="Helvetica,sans-Serif" font-size="10.00">_inlines.h</text>
</a>
</g>
</g>
<!-- Node5&#45;&gt;Node15 -->
<g id="edge14" class="edge">
<title>Node5&#45;&gt;Node15</title>
<path fill="none" stroke="midnightblue" d="M645.73,-67.74C647.85,-67.48 649.94,-67.23 652,-67 843.89,-45.34 894.25,-61.07 1085,-31 1087.73,-30.57 1090.52,-30.09 1093.33,-29.56"/>
<polygon fill="midnightblue" stroke="midnightblue" points="645.23,-64.27 635.75,-69.01 646.11,-71.22 645.23,-64.27"/>
</g>
<!-- Node16 -->
<g id="node16" class="node">
<title>Node16</title>
<g id="a_node16"><a xlink:href="timer__inlines_8h_source.html" target="_top" xlink:title=" ">
<polygon fill="white" stroke="black" points="1218.5,-6 1218.5,-25 1307.5,-25 1307.5,-6 1218.5,-6"/>
<text text-anchor="middle" x="1263" y="-13" font-family="Helvetica,sans-Serif" font-size="10.00">timer_inlines.h</text>
</a>
</g>
</g>
<!-- Node5&#45;&gt;Node16 -->
<g id="edge15" class="edge">
<title>Node5&#45;&gt;Node16</title>
<path fill="none" stroke="midnightblue" d="M645.73,-67.69C647.84,-67.44 649.94,-67.21 652,-67 899.19,-41.41 964.89,-72 1210,-31 1218.56,-29.57 1227.73,-27.32 1236,-25.02"/>
<polygon fill="midnightblue" stroke="midnightblue" points="645.24,-64.22 635.74,-68.91 646.09,-71.17 645.24,-64.22"/>
</g>
<!-- Node17&#45;&gt;Node5 -->
<g id="edge17" class="edge">
<title>Node17&#45;&gt;Node5</title>
<path fill="none" stroke="midnightblue" d="M614.94,-114.86C608.36,-105.5 600.49,-94.33 595.16,-86.75"/>
<polygon fill="midnightblue" stroke="midnightblue" points="612.11,-116.92 620.73,-123.08 617.83,-112.89 612.11,-116.92"/>
</g>
<!-- Node17&#45;&gt;Node18 -->
<g id="edge18" class="edge">
<title>Node17&#45;&gt;Node18</title>
<path fill="none" stroke="midnightblue" d="M648.57,-117.62C663.36,-107.76 682.51,-94.99 695.02,-86.65"/>
<polygon fill="midnightblue" stroke="midnightblue" points="646.39,-114.86 640.01,-123.32 650.28,-120.69 646.39,-114.86"/>
</g>
</g>
</svg>
