<?xml version="1.0" encoding="UTF-8" standalone="no"?>
<!DOCTYPE svg PUBLIC "-//W3C//DTD SVG 1.1//EN"
 "http://www.w3.org/Graphics/SVG/1.1/DTD/svg11.dtd">
<!-- Generated by graphviz version 2.43.0 (0)
 -->
<!-- Title: thread_types.h Pages: 1 -->
<svg width="1536pt" height="375pt"
 viewBox="0.00 0.00 1535.50 375.00" xmlns="http://www.w3.org/2000/svg" xmlns:xlink="http://www.w3.org/1999/xlink">
<g id="graph0" class="graph" transform="scale(1 1) rotate(0) translate(4 371)">
<title>thread_types.h</title>
<polygon fill="white" stroke="transparent" points="-4,4 -4,-371 1531.5,-371 1531.5,4 -4,4"/>
<!-- Node1 -->
<g id="node1" class="node">
<title>Node1</title>
<g id="a_node1"><a xlink:title=" ">
<polygon fill="#bfbfbf" stroke="black" points="780,-347.5 780,-366.5 869,-366.5 869,-347.5 780,-347.5"/>
<text text-anchor="middle" x="824.5" y="-354.5" font-family="Helvetica,sans-Serif" font-size="10.00">thread_types.h</text>
</a>
</g>
</g>
<!-- Node2 -->
<g id="node2" class="node">
<title>Node2</title>
<g id="a_node2"><a xlink:href="spec_2init_8h.html" target="_top" xlink:title=" ">
<polygon fill="white" stroke="black" points="735,-291.5 735,-310.5 776,-310.5 776,-291.5 735,-291.5"/>
<text text-anchor="middle" x="755.5" y="-298.5" font-family="Helvetica,sans-Serif" font-size="10.00">init.h</text>
</a>
</g>
</g>
<!-- Node1&#45;&gt;Node2 -->
<g id="edge1" class="edge">
<title>Node1&#45;&gt;Node2</title>
<path fill="none" stroke="midnightblue" d="M805.46,-341.1C793.04,-331.38 777.26,-319.03 766.79,-310.83"/>
<polygon fill="midnightblue" stroke="midnightblue" points="803.38,-343.92 813.41,-347.32 807.7,-338.4 803.38,-343.92"/>
</g>
<!-- Node18 -->
<g id="node18" class="node">
<title>Node18</title>
<g id="a_node18"><a xlink:href="thread__inline__types_8h_source.html" target="_top" xlink:title=" ">
<polygon fill="white" stroke="black" points="763.5,-179.5 763.5,-198.5 885.5,-198.5 885.5,-179.5 763.5,-179.5"/>
<text text-anchor="middle" x="824.5" y="-186.5" font-family="Helvetica,sans-Serif" font-size="10.00">thread_inline_types.h</text>
</a>
</g>
</g>
<!-- Node1&#45;&gt;Node18 -->
<g id="edge29" class="edge">
<title>Node1&#45;&gt;Node18</title>
<path fill="none" stroke="midnightblue" d="M824.5,-336.93C824.5,-300.92 824.5,-224.23 824.5,-198.57"/>
<polygon fill="midnightblue" stroke="midnightblue" points="821,-337.08 824.5,-347.08 828,-337.08 821,-337.08"/>
</g>
<!-- Node20 -->
<g id="node20" class="node">
<title>Node20</title>
<g id="a_node20"><a xlink:href="thread_8h.html" target="_top" xlink:title=" ">
<polygon fill="white" stroke="black" points="1206,-123.5 1206,-142.5 1263,-142.5 1263,-123.5 1206,-123.5"/>
<text text-anchor="middle" x="1234.5" y="-130.5" font-family="Helvetica,sans-Serif" font-size="10.00">thread.h</text>
</a>
</g>
</g>
<!-- Node1&#45;&gt;Node20 -->
<g id="edge21" class="edge">
<title>Node1&#45;&gt;Node20</title>
<path fill="none" stroke="midnightblue" d="M849.24,-342.61C925.51,-301.31 1155.67,-176.68 1218.5,-142.66"/>
<polygon fill="midnightblue" stroke="midnightblue" points="847.45,-339.59 840.32,-347.43 850.78,-345.75 847.45,-339.59"/>
</g>
<!-- Node3 -->
<g id="node3" class="node">
<title>Node3</title>
<g id="a_node3"><a xlink:href="init_8h.html" target="_top" xlink:title=" ">
<polygon fill="white" stroke="black" points="715,-235.5 715,-254.5 756,-254.5 756,-235.5 715,-235.5"/>
<text text-anchor="middle" x="735.5" y="-242.5" font-family="Helvetica,sans-Serif" font-size="10.00">init.h</text>
</a>
</g>
</g>
<!-- Node2&#45;&gt;Node3 -->
<g id="edge2" class="edge">
<title>Node2&#45;&gt;Node3</title>
<path fill="none" stroke="midnightblue" d="M748.72,-281.69C745.35,-272.59 741.43,-262.01 738.74,-254.75"/>
<polygon fill="midnightblue" stroke="midnightblue" points="745.44,-282.92 752.2,-291.08 752.01,-280.49 745.44,-282.92"/>
</g>
<!-- Node4 -->
<g id="node4" class="node">
<title>Node4</title>
<g id="a_node4"><a xlink:href="spec_2shared__memory_8h.html" target="_top" xlink:title=" ">
<polygon fill="white" stroke="black" points="554.5,-179.5 554.5,-198.5 658.5,-198.5 658.5,-179.5 554.5,-179.5"/>
<text text-anchor="middle" x="606.5" y="-186.5" font-family="Helvetica,sans-Serif" font-size="10.00">shared_memory.h</text>
</a>
</g>
</g>
<!-- Node3&#45;&gt;Node4 -->
<g id="edge3" class="edge">
<title>Node3&#45;&gt;Node4</title>
<path fill="none" stroke="midnightblue" d="M705.65,-231.5C681.46,-221.38 648.04,-207.39 626.84,-198.52"/>
<polygon fill="midnightblue" stroke="midnightblue" points="704.48,-234.81 715.06,-235.44 707.19,-228.35 704.48,-234.81"/>
</g>
<!-- Node6 -->
<g id="node6" class="node">
<title>Node6</title>
<g id="a_node6"><a xlink:href="debug__inlines_8h.html" target="_top" xlink:title=" ">
<polygon fill="white" stroke="black" points="655,-123.5 655,-142.5 748,-142.5 748,-123.5 655,-123.5"/>
<text text-anchor="middle" x="701.5" y="-130.5" font-family="Helvetica,sans-Serif" font-size="10.00">debug_inlines.h</text>
</a>
</g>
</g>
<!-- Node3&#45;&gt;Node6 -->
<g id="edge5" class="edge">
<title>Node3&#45;&gt;Node6</title>
<path fill="none" stroke="midnightblue" d="M729.81,-225.75C727.26,-217.57 724.22,-207.8 721.5,-199 715.29,-178.92 708.05,-155.34 704.21,-142.83"/>
<polygon fill="midnightblue" stroke="midnightblue" points="726.49,-226.87 732.81,-235.38 733.17,-224.79 726.49,-226.87"/>
</g>
<!-- Node3&#45;&gt;Node18 -->
<g id="edge17" class="edge">
<title>Node3&#45;&gt;Node18</title>
<path fill="none" stroke="midnightblue" d="M758.74,-229.9C775.06,-220 796.37,-207.07 810.24,-198.65"/>
<polygon fill="midnightblue" stroke="midnightblue" points="756.53,-227.14 749.8,-235.32 760.16,-233.13 756.53,-227.14"/>
</g>
<!-- Node19 -->
<g id="node19" class="node">
<title>Node19</title>
<g id="a_node19"><a xlink:href="thread__inlines_8h_source.html" target="_top" xlink:title=" ">
<polygon fill="white" stroke="black" points="773,-123.5 773,-142.5 868,-142.5 868,-123.5 773,-123.5"/>
<text text-anchor="middle" x="820.5" y="-130.5" font-family="Helvetica,sans-Serif" font-size="10.00">thread_inlines.h</text>
</a>
</g>
</g>
<!-- Node3&#45;&gt;Node19 -->
<g id="edge20" class="edge">
<title>Node3&#45;&gt;Node19</title>
<path fill="none" stroke="midnightblue" d="M737.6,-224.9C739.9,-211.08 744.67,-192.52 754.5,-179 766.48,-162.51 786.47,-150.12 801.31,-142.56"/>
<polygon fill="midnightblue" stroke="midnightblue" points="734.08,-224.8 736.19,-235.19 741.02,-225.75 734.08,-224.8"/>
</g>
<!-- Node5 -->
<g id="node5" class="node">
<title>Node5</title>
<g id="a_node5"><a xlink:href="shared__memory_8h.html" target="_top" xlink:title=" ">
<polygon fill="white" stroke="black" points="532.5,-123.5 532.5,-142.5 636.5,-142.5 636.5,-123.5 532.5,-123.5"/>
<text text-anchor="middle" x="584.5" y="-130.5" font-family="Helvetica,sans-Serif" font-size="10.00">shared_memory.h</text>
</a>
</g>
</g>
<!-- Node4&#45;&gt;Node5 -->
<g id="edge4" class="edge">
<title>Node4&#45;&gt;Node5</title>
<path fill="none" stroke="midnightblue" d="M599.04,-169.69C595.33,-160.59 591.02,-150.01 588.07,-142.75"/>
<polygon fill="midnightblue" stroke="midnightblue" points="595.85,-171.14 602.87,-179.08 602.34,-168.5 595.85,-171.14"/>
</g>
<!-- Node7 -->
<g id="node7" class="node">
<title>Node7</title>
<g id="a_node7"><a xlink:href="buffer__inlines_8h_source.html" target="_top" xlink:title=" ">
<polygon fill="white" stroke="black" points="710.5,-62 710.5,-81 802.5,-81 802.5,-62 710.5,-62"/>
<text text-anchor="middle" x="756.5" y="-69" font-family="Helvetica,sans-Serif" font-size="10.00">buffer_inlines.h</text>
</a>
</g>
</g>
<!-- Node6&#45;&gt;Node7 -->
<g id="edge6" class="edge">
<title>Node6&#45;&gt;Node7</title>
<path fill="none" stroke="midnightblue" d="M716.29,-116C726.7,-104.74 740.23,-90.1 748.63,-81.01"/>
<polygon fill="midnightblue" stroke="midnightblue" points="713.6,-113.76 709.38,-123.48 718.74,-118.51 713.6,-113.76"/>
</g>
<!-- Node8 -->
<g id="node8" class="node">
<title>Node8</title>
<g id="a_node8"><a xlink:href="crypto__inlines_8h_source.html" target="_top" xlink:title=" ">
<polygon fill="white" stroke="black" points="820.5,-62 820.5,-81 914.5,-81 914.5,-62 820.5,-62"/>
<text text-anchor="middle" x="867.5" y="-69" font-family="Helvetica,sans-Serif" font-size="10.00">crypto_inlines.h</text>
</a>
</g>
</g>
<!-- Node6&#45;&gt;Node8 -->
<g id="edge7" class="edge">
<title>Node6&#45;&gt;Node8</title>
<path fill="none" stroke="midnightblue" d="M734.75,-120.08C767.02,-108.52 815.18,-91.25 843.76,-81.01"/>
<polygon fill="midnightblue" stroke="midnightblue" points="733.52,-116.81 725.28,-123.48 735.88,-123.4 733.52,-116.81"/>
</g>
<!-- Node9 -->
<g id="node9" class="node">
<title>Node9</title>
<g id="a_node9"><a xlink:href="dma__inlines_8h_source.html" target="_top" xlink:title=" ">
<polygon fill="white" stroke="black" points="933,-62 933,-81 1018,-81 1018,-62 933,-62"/>
<text text-anchor="middle" x="975.5" y="-69" font-family="Helvetica,sans-Serif" font-size="10.00">dma_inlines.h</text>
</a>
</g>
</g>
<!-- Node6&#45;&gt;Node9 -->
<g id="edge8" class="edge">
<title>Node6&#45;&gt;Node9</title>
<path fill="none" stroke="midnightblue" d="M757.93,-121.72C802.94,-113.25 867.51,-100.46 923.5,-87 930.88,-85.23 938.8,-83.12 946.17,-81.08"/>
<polygon fill="midnightblue" stroke="midnightblue" points="757.24,-118.29 748.06,-123.57 758.53,-125.17 757.24,-118.29"/>
</g>
<!-- Node10 -->
<g id="node10" class="node">
<title>Node10</title>
<g id="a_node10"><a xlink:href="event__inlines_8h_source.html" target="_top" xlink:title=" ">
<polygon fill="white" stroke="black" points="0,-62 0,-81 91,-81 91,-62 0,-62"/>
<text text-anchor="middle" x="45.5" y="-69" font-family="Helvetica,sans-Serif" font-size="10.00">event_inlines.h</text>
</a>
</g>
</g>
<!-- Node6&#45;&gt;Node10 -->
<g id="edge9" class="edge">
<title>Node6&#45;&gt;Node10</title>
<path fill="none" stroke="midnightblue" d="M644.6,-123.02C402.05,-96.51 336.15,-126.18 99.5,-87 90.79,-85.56 81.44,-83.31 73.02,-81.01"/>
<polygon fill="midnightblue" stroke="midnightblue" points="644.47,-126.53 654.79,-124.16 645.24,-119.57 644.47,-126.53"/>
</g>
<!-- Node11 -->
<g id="node11" class="node">
<title>Node11</title>
<g id="a_node11"><a xlink:href="ipsec__inlines_8h_source.html" target="_top" xlink:title=" ">
<polygon fill="white" stroke="black" points="109,-62 109,-81 198,-81 198,-62 109,-62"/>
<text text-anchor="middle" x="153.5" y="-69" font-family="Helvetica,sans-Serif" font-size="10.00">ipsec_inlines.h</text>
</a>
</g>
</g>
<!-- Node6&#45;&gt;Node11 -->
<g id="edge10" class="edge">
<title>Node6&#45;&gt;Node11</title>
<path fill="none" stroke="midnightblue" d="M644.77,-123.02C449.39,-100.15 396.09,-120.41 206.5,-87 198.04,-85.51 188.98,-83.28 180.79,-81"/>
<polygon fill="midnightblue" stroke="midnightblue" points="644.44,-126.51 654.79,-124.21 645.27,-119.55 644.44,-126.51"/>
</g>
<!-- Node12 -->
<g id="node12" class="node">
<title>Node12</title>
<g id="a_node12"><a xlink:href="packet__inlines_8h.html" target="_top" xlink:title=" ">
<polygon fill="white" stroke="black" points="216,-62 216,-81 311,-81 311,-62 216,-62"/>
<text text-anchor="middle" x="263.5" y="-69" font-family="Helvetica,sans-Serif" font-size="10.00">packet_inlines.h</text>
</a>
</g>
</g>
<!-- Node6&#45;&gt;Node12 -->
<g id="edge11" class="edge">
<title>Node6&#45;&gt;Node12</title>
<path fill="none" stroke="midnightblue" d="M644.59,-122.95C499.28,-103.86 459.65,-112.75 319.5,-87 310.91,-85.42 301.69,-83.24 293.26,-81.05"/>
<polygon fill="midnightblue" stroke="midnightblue" points="644.4,-126.46 654.77,-124.31 645.33,-119.52 644.4,-126.46"/>
</g>
<!-- Node13 -->
<g id="node13" class="node">
<title>Node13</title>
<g id="a_node13"><a xlink:href="packet__vector__inlines_8h.html" target="_top" xlink:title=" ">
<polygon fill="white" stroke="black" points="329,-62 329,-81 460,-81 460,-62 329,-62"/>
<text text-anchor="middle" x="394.5" y="-69" font-family="Helvetica,sans-Serif" font-size="10.00">packet_vector_inlines.h</text>
</a>
</g>
</g>
<!-- Node6&#45;&gt;Node13 -->
<g id="edge12" class="edge">
<title>Node6&#45;&gt;Node13</title>
<path fill="none" stroke="midnightblue" d="M647.25,-121.57C600.02,-112.47 529.72,-98.91 468.5,-87 458.61,-85.08 447.97,-83 437.93,-81.03"/>
<polygon fill="midnightblue" stroke="midnightblue" points="646.78,-125.04 657.26,-123.49 648.1,-118.17 646.78,-125.04"/>
</g>
<!-- Node14 -->
<g id="node14" class="node">
<title>Node14</title>
<g id="a_node14"><a xlink:href="rwlock__recursive__inlines_8h_source.html" target="_top" xlink:title=" ">
<polygon fill="white" stroke="black" points="1161.5,-62 1161.5,-81 1307.5,-81 1307.5,-62 1161.5,-62"/>
<text text-anchor="middle" x="1234.5" y="-69" font-family="Helvetica,sans-Serif" font-size="10.00">rwlock_recursive_inlines.h</text>
</a>
</g>
</g>
<!-- Node6&#45;&gt;Node14 -->
<g id="edge13" class="edge">
<title>Node6&#45;&gt;Node14</title>
<path fill="none" stroke="midnightblue" d="M758.31,-123.63C760.06,-123.41 761.79,-123.2 763.5,-123 935.92,-102.52 980.42,-110.14 1152.5,-87 1164.68,-85.36 1177.81,-83.21 1189.92,-81.07"/>
<polygon fill="midnightblue" stroke="midnightblue" points="757.65,-120.19 748.18,-124.96 758.55,-127.13 757.65,-120.19"/>
</g>
<!-- Node15 -->
<g id="node15" class="node">
<title>Node15</title>
<g id="a_node15"><a xlink:href="schedule__inlines_8h_source.html" target="_top" xlink:title=" ">
<polygon fill="white" stroke="black" points="478,-62 478,-81 585,-81 585,-62 478,-62"/>
<text text-anchor="middle" x="531.5" y="-69" font-family="Helvetica,sans-Serif" font-size="10.00">schedule_inlines.h</text>
</a>
</g>
</g>
<!-- Node6&#45;&gt;Node15 -->
<g id="edge14" class="edge">
<title>Node6&#45;&gt;Node15</title>
<path fill="none" stroke="midnightblue" d="M667.45,-120.08C634.41,-108.52 585.08,-91.25 555.81,-81.01"/>
<polygon fill="midnightblue" stroke="midnightblue" points="666.55,-123.48 677.14,-123.48 668.86,-116.87 666.55,-123.48"/>
</g>
<!-- Node16 -->
<g id="node16" class="node">
<title>Node16</title>
<g id="a_node16"><a xlink:href="spinlock__recursive__inlines_8h_source.html" target="_top" xlink:title=" ">
<polygon fill="white" stroke="black" points="1036,-56.5 1036,-86.5 1143,-86.5 1143,-56.5 1036,-56.5"/>
<text text-anchor="start" x="1044" y="-74.5" font-family="Helvetica,sans-Serif" font-size="10.00">spinlock_recursive</text>
<text text-anchor="middle" x="1089.5" y="-63.5" font-family="Helvetica,sans-Serif" font-size="10.00">_inlines.h</text>
</a>
</g>
</g>
<!-- Node6&#45;&gt;Node16 -->
<g id="edge15" class="edge">
<title>Node6&#45;&gt;Node16</title>
<path fill="none" stroke="midnightblue" d="M758.32,-123.73C760.07,-123.48 761.8,-123.24 763.5,-123 880.76,-106.49 911.05,-108.51 1027.5,-87 1030.22,-86.5 1033,-85.96 1035.8,-85.39"/>
<polygon fill="midnightblue" stroke="midnightblue" points="757.62,-120.3 748.21,-125.18 758.61,-127.23 757.62,-120.3"/>
</g>
<!-- Node17 -->
<g id="node17" class="node">
<title>Node17</title>
<g id="a_node17"><a xlink:href="timer__inlines_8h_source.html" target="_top" xlink:title=" ">
<polygon fill="white" stroke="black" points="603,-62 603,-81 692,-81 692,-62 603,-62"/>
<text text-anchor="middle" x="647.5" y="-69" font-family="Helvetica,sans-Serif" font-size="10.00">timer_inlines.h</text>
</a>
</g>
</g>
<!-- Node6&#45;&gt;Node17 -->
<g id="edge16" class="edge">
<title>Node6&#45;&gt;Node17</title>
<path fill="none" stroke="midnightblue" d="M686.98,-116C676.76,-104.74 663.48,-90.1 655.22,-81.01"/>
<polygon fill="midnightblue" stroke="midnightblue" points="684.45,-118.42 693.76,-123.48 689.63,-113.72 684.45,-118.42"/>
</g>
<!-- Node18&#45;&gt;Node6 -->
<g id="edge18" class="edge">
<title>Node18&#45;&gt;Node6</title>
<path fill="none" stroke="midnightblue" d="M795.73,-175.37C772.69,-165.26 741.02,-151.35 720.9,-142.52"/>
<polygon fill="midnightblue" stroke="midnightblue" points="794.45,-178.63 805.01,-179.44 797.26,-172.22 794.45,-178.63"/>
</g>
<!-- Node18&#45;&gt;Node19 -->
<g id="edge19" class="edge">
<title>Node18&#45;&gt;Node19</title>
<path fill="none" stroke="midnightblue" d="M823.1,-169.1C822.44,-160.14 821.67,-149.86 821.15,-142.75"/>
<polygon fill="midnightblue" stroke="midnightblue" points="819.61,-169.37 823.84,-179.08 826.59,-168.85 819.61,-169.37"/>
</g>
<!-- Node20&#45;&gt;Node14 -->
<g id="edge27" class="edge">
<title>Node20&#45;&gt;Node14</title>
<path fill="none" stroke="midnightblue" d="M1234.5,-113.32C1234.5,-102.5 1234.5,-89.4 1234.5,-81.01"/>
<polygon fill="midnightblue" stroke="midnightblue" points="1231,-113.48 1234.5,-123.48 1238,-113.48 1231,-113.48"/>
</g>
<!-- Node20&#45;&gt;Node16 -->
<g id="edge28" class="edge">
<title>Node20&#45;&gt;Node16</title>
<path fill="none" stroke="midnightblue" d="M1204.26,-119.59C1180.75,-109.94 1148.13,-96.56 1123.67,-86.52"/>
<polygon fill="midnightblue" stroke="midnightblue" points="1203.14,-122.92 1213.73,-123.48 1205.8,-116.44 1203.14,-122.92"/>
</g>
<!-- Node21 -->
<g id="node21" class="node">
<title>Node21</title>
<g id="a_node21"><a xlink:href="abi-default_2rwlock__recursive_8h.html" target="_top" xlink:title=" ">
<polygon fill="white" stroke="black" points="1387.5,-62 1387.5,-81 1495.5,-81 1495.5,-62 1387.5,-62"/>
<text text-anchor="middle" x="1441.5" y="-69" font-family="Helvetica,sans-Serif" font-size="10.00">rwlock_recursive.h</text>
</a>
</g>
</g>
<!-- Node20&#45;&gt;Node21 -->
<g id="edge22" class="edge">
<title>Node20&#45;&gt;Node21</title>
<path fill="none" stroke="midnightblue" d="M1272.98,-120.94C1313.07,-109.41 1375.06,-91.6 1411.62,-81.09"/>
<polygon fill="midnightblue" stroke="midnightblue" points="1271.93,-117.6 1263.28,-123.73 1273.86,-124.33 1271.93,-117.6"/>
</g>
<!-- Node22 -->
<g id="node22" class="node">
<title>Node22</title>
<g id="a_node22"><a xlink:href="cpu_8h.html" target="_top" xlink:title=" ">
<polygon fill="white" stroke="black" points="1326,-62 1326,-81 1369,-81 1369,-62 1326,-62"/>
<text text-anchor="middle" x="1347.5" y="-69" font-family="Helvetica,sans-Serif" font-size="10.00">cpu.h</text>
</a>
</g>
</g>
<!-- Node20&#45;&gt;Node22 -->
<g id="edge23" class="edge">
<title>Node20&#45;&gt;Node22</title>
<path fill="none" stroke="midnightblue" d="M1259.74,-118.71C1281.62,-107.19 1312.64,-90.86 1331.34,-81.01"/>
<polygon fill="midnightblue" stroke="midnightblue" points="1257.91,-115.72 1250.69,-123.48 1261.17,-121.91 1257.91,-115.72"/>
</g>
<!-- Node23 -->
<g id="node23" class="node">
<title>Node23</title>
<g id="a_node23"><a xlink:href="rwlock__inlines_8h_source.html" target="_top" xlink:title=" ">
<polygon fill="white" stroke="black" points="1182,-0.5 1182,-19.5 1277,-19.5 1277,-0.5 1182,-0.5"/>
<text text-anchor="middle" x="1229.5" y="-7.5" font-family="Helvetica,sans-Serif" font-size="10.00">rwlock_inlines.h</text>
</a>
</g>
</g>
<!-- Node22&#45;&gt;Node23 -->
<g id="edge24" class="edge">
<title>Node22&#45;&gt;Node23</title>
<path fill="none" stroke="midnightblue" d="M1321.45,-57.37C1298.58,-45.83 1265.99,-29.4 1246.38,-19.51"/>
<polygon fill="midnightblue" stroke="midnightblue" points="1320.09,-60.6 1330.59,-61.98 1323.24,-54.35 1320.09,-60.6"/>
</g>
<!-- Node24 -->
<g id="node24" class="node">
<title>Node24</title>
<g id="a_node24"><a xlink:href="spinlock__inlines_8h_source.html" target="_top" xlink:title=" ">
<polygon fill="white" stroke="black" points="1295.5,-0.5 1295.5,-19.5 1399.5,-19.5 1399.5,-0.5 1295.5,-0.5"/>
<text text-anchor="middle" x="1347.5" y="-7.5" font-family="Helvetica,sans-Serif" font-size="10.00">spinlock_inlines.h</text>
</a>
</g>
</g>
<!-- Node22&#45;&gt;Node24 -->
<g id="edge25" class="edge">
<title>Node22&#45;&gt;Node24</title>
<path fill="none" stroke="midnightblue" d="M1347.5,-51.82C1347.5,-41 1347.5,-27.9 1347.5,-19.51"/>
<polygon fill="midnightblue" stroke="midnightblue" points="1344,-51.98 1347.5,-61.98 1351,-51.98 1344,-51.98"/>
</g>
<!-- Node25 -->
<g id="node25" class="node">
<title>Node25</title>
<g id="a_node25"><a xlink:href="ticketlock__inlines_8h_source.html" target="_top" xlink:title=" ">
<polygon fill="white" stroke="black" points="1417.5,-0.5 1417.5,-19.5 1527.5,-19.5 1527.5,-0.5 1417.5,-0.5"/>
<text text-anchor="middle" x="1472.5" y="-7.5" font-family="Helvetica,sans-Serif" font-size="10.00">ticketlock_inlines.h</text>
</a>
</g>
</g>
<!-- Node22&#45;&gt;Node25 -->
<g id="edge26" class="edge">
<title>Node22&#45;&gt;Node25</title>
<path fill="none" stroke="midnightblue" d="M1374.44,-57.67C1398.7,-46.13 1433.66,-29.49 1454.62,-19.51"/>
<polygon fill="midnightblue" stroke="midnightblue" points="1372.93,-54.52 1365.41,-61.98 1375.94,-60.84 1372.93,-54.52"/>
</g>
</g>
</svg>
