<?xml version="1.0" encoding="UTF-8" standalone="no"?>
<!DOCTYPE svg PUBLIC "-//W3C//DTD SVG 1.1//EN"
 "http://www.w3.org/Graphics/SVG/1.1/DTD/svg11.dtd">
<!-- Generated by graphviz version 2.43.0 (0)
 -->
<!-- Title: odph_api.h Pages: 1 -->
<svg width="2362pt" height="207pt"
 viewBox="0.00 0.00 2361.50 207.00" xmlns="http://www.w3.org/2000/svg" xmlns:xlink="http://www.w3.org/1999/xlink">
<g id="graph0" class="graph" transform="scale(1 1) rotate(0) translate(4 203)">
<title>odph_api.h</title>
<polygon fill="white" stroke="transparent" points="-4,4 -4,-203 2357.5,-203 2357.5,4 -4,4"/>
<!-- Node1 -->
<g id="node1" class="node">
<title>Node1</title>
<g id="a_node1"><a xlink:title=" ">
<polygon fill="#bfbfbf" stroke="black" points="930.5,-179.5 930.5,-198.5 1000.5,-198.5 1000.5,-179.5 930.5,-179.5"/>
<text text-anchor="middle" x="965.5" y="-186.5" font-family="Helvetica,sans-Serif" font-size="10.00">odph_api.h</text>
</a>
</g>
</g>
<!-- Node2 -->
<g id="node2" class="node">
<title>Node2</title>
<g id="a_node2"><a xlink:href="autoheader__external_8h_source.html" target="_top" xlink:title=" ">
<polygon fill="white" stroke="black" points="129,-0.5 129,-30.5 256,-30.5 256,-0.5 129,-0.5"/>
<text text-anchor="start" x="137" y="-18.5" font-family="Helvetica,sans-Serif" font-size="10.00">odp/helper/autoheader</text>
<text text-anchor="middle" x="192.5" y="-7.5" font-family="Helvetica,sans-Serif" font-size="10.00">_external.h</text>
</a>
</g>
</g>
<!-- Node1&#45;&gt;Node2 -->
<g id="edge1" class="edge">
<title>Node1&#45;&gt;Node2</title>
<path fill="none" stroke="midnightblue" d="M930.07,-188.45C788.04,-189.9 264.97,-191.89 211.5,-143 183.6,-117.49 184.4,-69.96 188.07,-40.98"/>
<polygon fill="midnightblue" stroke="midnightblue" points="191.57,-41.27 189.57,-30.87 184.64,-40.25 191.57,-41.27"/>
</g>
<!-- Node3 -->
<g id="node3" class="node">
<title>Node3</title>
<g id="a_node3"><a xlink:href="odph__debug_8h.html" target="_top" xlink:title=" ">
<polygon fill="white" stroke="black" points="24.5,-123.5 24.5,-142.5 164.5,-142.5 164.5,-123.5 24.5,-123.5"/>
<text text-anchor="middle" x="94.5" y="-130.5" font-family="Helvetica,sans-Serif" font-size="10.00">odp/helper/odph_debug.h</text>
</a>
</g>
</g>
<!-- Node1&#45;&gt;Node3 -->
<g id="edge2" class="edge">
<title>Node1&#45;&gt;Node3</title>
<path fill="none" stroke="midnightblue" d="M930.16,-186.61C819.27,-182.09 468.34,-166.8 178.5,-143 177.23,-142.9 175.94,-142.79 174.65,-142.68"/>
<polygon fill="midnightblue" stroke="midnightblue" points="174.87,-139.18 164.6,-141.77 174.25,-146.15 174.87,-139.18"/>
</g>
<!-- Node6 -->
<g id="node6" class="node">
<title>Node6</title>
<g id="a_node6"><a xlink:href="chksum_8h.html" target="_top" xlink:title=" ">
<polygon fill="white" stroke="black" points="310,-67.5 310,-86.5 429,-86.5 429,-67.5 310,-67.5"/>
<text text-anchor="middle" x="369.5" y="-74.5" font-family="Helvetica,sans-Serif" font-size="10.00">odp/helper/chksum.h</text>
</a>
</g>
</g>
<!-- Node1&#45;&gt;Node6 -->
<g id="edge6" class="edge">
<title>Node1&#45;&gt;Node6</title>
<path fill="none" stroke="midnightblue" d="M930.19,-186.74C833.07,-182.94 563.54,-170.2 479.5,-143 470.22,-140 421.73,-110.41 392.31,-92.21"/>
<polygon fill="midnightblue" stroke="midnightblue" points="393.85,-89.04 383.51,-86.75 390.16,-94.99 393.85,-89.04"/>
</g>
<!-- Node8 -->
<g id="node8" class="node">
<title>Node8</title>
<g id="a_node8"><a xlink:href="odph__cuckootable_8h.html" target="_top" xlink:title=" ">
<polygon fill="white" stroke="black" points="1879.5,-123.5 1879.5,-142.5 2047.5,-142.5 2047.5,-123.5 1879.5,-123.5"/>
<text text-anchor="middle" x="1963.5" y="-130.5" font-family="Helvetica,sans-Serif" font-size="10.00">odp/helper/odph_cuckootable.h</text>
</a>
</g>
</g>
<!-- Node1&#45;&gt;Node8 -->
<g id="edge8" class="edge">
<title>Node1&#45;&gt;Node8</title>
<path fill="none" stroke="midnightblue" d="M1000.7,-186.77C1121.33,-182.43 1529.2,-166.84 1865.5,-143 1866.77,-142.91 1868.05,-142.82 1869.34,-142.72"/>
<polygon fill="midnightblue" stroke="midnightblue" points="1869.62,-146.21 1879.32,-141.96 1869.08,-139.23 1869.62,-146.21"/>
</g>
<!-- Node9 -->
<g id="node9" class="node">
<title>Node9</title>
<g id="a_node9"><a xlink:href="table_8h.html" target="_top" xlink:title=" ">
<polygon fill="white" stroke="black" points="1683,-67.5 1683,-86.5 1788,-86.5 1788,-67.5 1683,-67.5"/>
<text text-anchor="middle" x="1735.5" y="-74.5" font-family="Helvetica,sans-Serif" font-size="10.00">odp/helper/table.h</text>
</a>
</g>
</g>
<!-- Node1&#45;&gt;Node9 -->
<g id="edge39" class="edge">
<title>Node1&#45;&gt;Node9</title>
<path fill="none" stroke="midnightblue" d="M1000.59,-187.51C1159.29,-185.14 1803.39,-173.66 1832.5,-143 1854.25,-120.09 1813.57,-100.98 1778.41,-89.54"/>
<polygon fill="midnightblue" stroke="midnightblue" points="1779.28,-86.15 1768.7,-86.52 1777.21,-92.83 1779.28,-86.15"/>
</g>
<!-- Node11 -->
<g id="node11" class="node">
<title>Node11</title>
<g id="a_node11"><a xlink:href="strong__types_8h.html" target="_top" xlink:title=" ">
<polygon fill="white" stroke="black" points="1834,-6 1834,-25 1977,-25 1977,-6 1834,-6"/>
<text text-anchor="middle" x="1905.5" y="-13" font-family="Helvetica,sans-Serif" font-size="10.00">odp/helper/strong_types.h</text>
</a>
</g>
</g>
<!-- Node1&#45;&gt;Node11 -->
<g id="edge36" class="edge">
<title>Node1&#45;&gt;Node11</title>
<path fill="none" stroke="midnightblue" d="M1000.76,-187.9C1183.84,-187.22 2019.11,-181.96 2056.5,-143 2101.16,-96.46 1998.07,-49.84 1940.69,-28.51"/>
<polygon fill="midnightblue" stroke="midnightblue" points="1941.82,-25.2 1931.22,-25.07 1939.42,-31.78 1941.82,-25.2"/>
</g>
<!-- Node12 -->
<g id="node12" class="node">
<title>Node12</title>
<g id="a_node12"><a xlink:href="eth_8h.html" target="_top" xlink:title=" ">
<polygon fill="white" stroke="black" points="557.5,-67.5 557.5,-86.5 653.5,-86.5 653.5,-67.5 557.5,-67.5"/>
<text text-anchor="middle" x="605.5" y="-74.5" font-family="Helvetica,sans-Serif" font-size="10.00">odp/helper/eth.h</text>
</a>
</g>
</g>
<!-- Node1&#45;&gt;Node12 -->
<g id="edge12" class="edge">
<title>Node1&#45;&gt;Node12</title>
<path fill="none" stroke="midnightblue" d="M936.92,-179.42C906.92,-170.4 858.37,-155.77 816.5,-143 755.57,-124.42 684.84,-102.57 642.7,-89.53"/>
<polygon fill="midnightblue" stroke="midnightblue" points="643.72,-86.18 633.13,-86.57 641.65,-92.87 643.72,-86.18"/>
</g>
<!-- Node13 -->
<g id="node13" class="node">
<title>Node13</title>
<g id="a_node13"><a xlink:href="gtp_8h.html" target="_top" xlink:title=" ">
<polygon fill="white" stroke="black" points="671.5,-67.5 671.5,-86.5 767.5,-86.5 767.5,-67.5 671.5,-67.5"/>
<text text-anchor="middle" x="719.5" y="-74.5" font-family="Helvetica,sans-Serif" font-size="10.00">odp/helper/gtp.h</text>
</a>
</g>
</g>
<!-- Node1&#45;&gt;Node13 -->
<g id="edge14" class="edge">
<title>Node1&#45;&gt;Node13</title>
<path fill="none" stroke="midnightblue" d="M946.2,-179.37C903.08,-160.09 798.79,-113.45 748.1,-90.79"/>
<polygon fill="midnightblue" stroke="midnightblue" points="749.27,-87.48 738.71,-86.59 746.41,-93.87 749.27,-87.48"/>
</g>
<!-- Node14 -->
<g id="node14" class="node">
<title>Node14</title>
<g id="a_node14"><a xlink:href="odph__hashtable_8h.html" target="_top" xlink:title=" ">
<polygon fill="white" stroke="black" points="1471.5,-123.5 1471.5,-142.5 1629.5,-142.5 1629.5,-123.5 1471.5,-123.5"/>
<text text-anchor="middle" x="1550.5" y="-130.5" font-family="Helvetica,sans-Serif" font-size="10.00">odp/helper/odph_hashtable.h</text>
</a>
</g>
</g>
<!-- Node1&#45;&gt;Node14 -->
<g id="edge16" class="edge">
<title>Node1&#45;&gt;Node14</title>
<path fill="none" stroke="midnightblue" d="M1000.76,-184.95C1080.64,-178.01 1281.73,-160.36 1461.2,-143.12"/>
<polygon fill="midnightblue" stroke="midnightblue" points="1461.73,-146.58 1471.35,-142.14 1461.06,-139.61 1461.73,-146.58"/>
</g>
<!-- Node15 -->
<g id="node15" class="node">
<title>Node15</title>
<g id="a_node15"><a xlink:href="icmp_8h.html" target="_top" xlink:title=" ">
<polygon fill="white" stroke="black" points="785.5,-67.5 785.5,-86.5 889.5,-86.5 889.5,-67.5 785.5,-67.5"/>
<text text-anchor="middle" x="837.5" y="-74.5" font-family="Helvetica,sans-Serif" font-size="10.00">odp/helper/icmp.h</text>
</a>
</g>
</g>
<!-- Node1&#45;&gt;Node15 -->
<g id="edge18" class="edge">
<title>Node1&#45;&gt;Node15</title>
<path fill="none" stroke="midnightblue" d="M950.45,-179.48C936.17,-171.06 914.43,-157.4 897.5,-143 880.04,-128.14 862.54,-108.51 850.98,-94.72"/>
<polygon fill="midnightblue" stroke="midnightblue" points="853.36,-92.11 844.31,-86.61 847.96,-96.56 853.36,-92.11"/>
</g>
<!-- Node16 -->
<g id="node16" class="node">
<title>Node16</title>
<g id="a_node16"><a xlink:href="igmp_8h.html" target="_top" xlink:title=" ">
<polygon fill="white" stroke="black" points="908,-67.5 908,-86.5 1013,-86.5 1013,-67.5 908,-67.5"/>
<text text-anchor="middle" x="960.5" y="-74.5" font-family="Helvetica,sans-Serif" font-size="10.00">odp/helper/igmp.h</text>
</a>
</g>
</g>
<!-- Node1&#45;&gt;Node16 -->
<g id="edge20" class="edge">
<title>Node1&#45;&gt;Node16</title>
<path fill="none" stroke="midnightblue" d="M945.28,-179.49C930.73,-172.17 912.2,-160.06 903.5,-143 893.21,-122.82 914.86,-103.85 934.36,-91.67"/>
<polygon fill="midnightblue" stroke="midnightblue" points="936.2,-94.65 943.05,-86.57 932.65,-88.61 936.2,-94.65"/>
</g>
<!-- Node17 -->
<g id="node17" class="node">
<title>Node17</title>
<g id="a_node17"><a xlink:href="ip_8h.html" target="_top" xlink:title=" ">
<polygon fill="white" stroke="black" points="489,-123.5 489,-142.5 578,-142.5 578,-123.5 489,-123.5"/>
<text text-anchor="middle" x="533.5" y="-130.5" font-family="Helvetica,sans-Serif" font-size="10.00">odp/helper/ip.h</text>
</a>
</g>
</g>
<!-- Node1&#45;&gt;Node17 -->
<g id="edge22" class="edge">
<title>Node1&#45;&gt;Node17</title>
<path fill="none" stroke="midnightblue" d="M930.15,-183.58C854.86,-174.17 678.25,-152.09 588.27,-140.85"/>
<polygon fill="midnightblue" stroke="midnightblue" points="588.63,-137.36 578.27,-139.6 587.76,-144.31 588.63,-137.36"/>
</g>
<!-- Node19 -->
<g id="node19" class="node">
<title>Node19</title>
<g id="a_node19"><a xlink:href="ipsec_8h.html" target="_top" xlink:title=" ">
<polygon fill="white" stroke="black" points="912.5,-123.5 912.5,-142.5 1018.5,-142.5 1018.5,-123.5 912.5,-123.5"/>
<text text-anchor="middle" x="965.5" y="-130.5" font-family="Helvetica,sans-Serif" font-size="10.00">odp/helper/ipsec.h</text>
</a>
</g>
</g>
<!-- Node1&#45;&gt;Node19 -->
<g id="edge26" class="edge">
<title>Node1&#45;&gt;Node19</title>
<path fill="none" stroke="midnightblue" d="M965.5,-179.08C965.5,-172.01 965.5,-161.86 965.5,-152.99"/>
<polygon fill="midnightblue" stroke="midnightblue" points="969,-152.75 965.5,-142.75 962,-152.75 969,-152.75"/>
</g>
<!-- Node20 -->
<g id="node20" class="node">
<title>Node20</title>
<g id="a_node20"><a xlink:href="macros_8h.html" target="_top" xlink:title=" ">
<polygon fill="white" stroke="black" points="2103.5,-123.5 2103.5,-142.5 2219.5,-142.5 2219.5,-123.5 2103.5,-123.5"/>
<text text-anchor="middle" x="2161.5" y="-130.5" font-family="Helvetica,sans-Serif" font-size="10.00">odp/helper/macros.h</text>
</a>
</g>
</g>
<!-- Node1&#45;&gt;Node20 -->
<g id="edge28" class="edge">
<title>Node1&#45;&gt;Node20</title>
<path fill="none" stroke="midnightblue" d="M1000.53,-187.67C1138.97,-186.15 1661.3,-178.27 2089.5,-143 2090.77,-142.9 2092.05,-142.78 2093.35,-142.67"/>
<polygon fill="midnightblue" stroke="midnightblue" points="2093.77,-146.14 2103.38,-141.69 2093.09,-139.18 2093.77,-146.14"/>
</g>
<!-- Node21 -->
<g id="node21" class="node">
<title>Node21</title>
<g id="a_node21"><a xlink:href="odph__lineartable_8h.html" target="_top" xlink:title=" ">
<polygon fill="white" stroke="black" points="1291.5,-123.5 1291.5,-142.5 1453.5,-142.5 1453.5,-123.5 1291.5,-123.5"/>
<text text-anchor="middle" x="1372.5" y="-130.5" font-family="Helvetica,sans-Serif" font-size="10.00">odp/helper/odph_lineartable.h</text>
</a>
</g>
</g>
<!-- Node1&#45;&gt;Node21 -->
<g id="edge29" class="edge">
<title>Node1&#45;&gt;Node21</title>
<path fill="none" stroke="midnightblue" d="M1000.55,-183.35C1066.46,-174.6 1210.15,-155.54 1298.39,-143.83"/>
<polygon fill="midnightblue" stroke="midnightblue" points="1298.88,-147.3 1308.34,-142.51 1297.96,-140.36 1298.88,-147.3"/>
</g>
<!-- Node22 -->
<g id="node22" class="node">
<title>Node22</title>
<g id="a_node22"><a xlink:href="odph__iplookuptable_8h.html" target="_top" xlink:title=" ">
<polygon fill="white" stroke="black" points="1647.5,-123.5 1647.5,-142.5 1823.5,-142.5 1823.5,-123.5 1647.5,-123.5"/>
<text text-anchor="middle" x="1735.5" y="-130.5" font-family="Helvetica,sans-Serif" font-size="10.00">odp/helper/odph_iplookuptable.h</text>
</a>
</g>
</g>
<!-- Node1&#45;&gt;Node22 -->
<g id="edge32" class="edge">
<title>Node1&#45;&gt;Node22</title>
<path fill="none" stroke="midnightblue" d="M1000.55,-185.98C1099.04,-180.22 1386.81,-162.94 1637.45,-143.06"/>
<polygon fill="midnightblue" stroke="midnightblue" points="1637.79,-146.55 1647.48,-142.27 1637.23,-139.57 1637.79,-146.55"/>
</g>
<!-- Node23 -->
<g id="node23" class="node">
<title>Node23</title>
<g id="a_node23"><a xlink:href="sctp_8h.html" target="_top" xlink:title=" ">
<polygon fill="white" stroke="black" points="1172,-123.5 1172,-142.5 1273,-142.5 1273,-123.5 1172,-123.5"/>
<text text-anchor="middle" x="1222.5" y="-130.5" font-family="Helvetica,sans-Serif" font-size="10.00">odp/helper/sctp.h</text>
</a>
</g>
</g>
<!-- Node1&#45;&gt;Node23 -->
<g id="edge34" class="edge">
<title>Node1&#45;&gt;Node23</title>
<path fill="none" stroke="midnightblue" d="M1000.7,-180.6C1044.94,-171.31 1121.2,-155.29 1171.74,-144.67"/>
<polygon fill="midnightblue" stroke="midnightblue" points="1172.74,-148.03 1181.8,-142.55 1171.3,-141.18 1172.74,-148.03"/>
</g>
<!-- Node24 -->
<g id="node24" class="node">
<title>Node24</title>
<g id="a_node24"><a xlink:href="tcp_8h.html" target="_top" xlink:title=" ">
<polygon fill="white" stroke="black" points="221,-123.5 221,-142.5 316,-142.5 316,-123.5 221,-123.5"/>
<text text-anchor="middle" x="268.5" y="-130.5" font-family="Helvetica,sans-Serif" font-size="10.00">odp/helper/tcp.h</text>
</a>
</g>
</g>
<!-- Node1&#45;&gt;Node24 -->
<g id="edge37" class="edge">
<title>Node1&#45;&gt;Node24</title>
<path fill="none" stroke="midnightblue" d="M930.37,-186.6C835.02,-182.56 563.26,-169.56 326.24,-142.98"/>
<polygon fill="midnightblue" stroke="midnightblue" points="326.37,-139.47 316.04,-141.82 325.59,-146.42 326.37,-139.47"/>
</g>
<!-- Node25 -->
<g id="node25" class="node">
<title>Node25</title>
<g id="a_node25"><a xlink:href="threads_8h.html" target="_top" xlink:title=" ">
<polygon fill="white" stroke="black" points="1037,-123.5 1037,-142.5 1154,-142.5 1154,-123.5 1037,-123.5"/>
<text text-anchor="middle" x="1095.5" y="-130.5" font-family="Helvetica,sans-Serif" font-size="10.00">odp/helper/threads.h</text>
</a>
</g>
</g>
<!-- Node1&#45;&gt;Node25 -->
<g id="edge40" class="edge">
<title>Node1&#45;&gt;Node25</title>
<path fill="none" stroke="midnightblue" d="M986.1,-179.44C1007.49,-170.56 1041.18,-156.56 1065.52,-146.45"/>
<polygon fill="midnightblue" stroke="midnightblue" points="1067.11,-149.58 1075,-142.52 1064.42,-143.12 1067.11,-149.58"/>
</g>
<!-- Node30 -->
<g id="node30" class="node">
<title>Node30</title>
<g id="a_node30"><a xlink:href="udp_8h.html" target="_top" xlink:title=" ">
<polygon fill="white" stroke="black" points="334.5,-123.5 334.5,-142.5 432.5,-142.5 432.5,-123.5 334.5,-123.5"/>
<text text-anchor="middle" x="383.5" y="-130.5" font-family="Helvetica,sans-Serif" font-size="10.00">odp/helper/udp.h</text>
</a>
</g>
</g>
<!-- Node1&#45;&gt;Node30 -->
<g id="edge49" class="edge">
<title>Node1&#45;&gt;Node30</title>
<path fill="none" stroke="midnightblue" d="M930.19,-185.62C846.21,-179.8 628,-163.82 446.5,-143 445.23,-142.85 443.95,-142.7 442.67,-142.55"/>
<polygon fill="midnightblue" stroke="midnightblue" points="443.01,-139.07 432.65,-141.29 442.13,-146.01 443.01,-139.07"/>
</g>
<!-- Node31 -->
<g id="node31" class="node">
<title>Node31</title>
<g id="a_node31"><a xlink:href="version_8h.html" target="_top" xlink:title=" ">
<polygon fill="white" stroke="black" points="2237.5,-123.5 2237.5,-142.5 2353.5,-142.5 2353.5,-123.5 2237.5,-123.5"/>
<text text-anchor="middle" x="2295.5" y="-130.5" font-family="Helvetica,sans-Serif" font-size="10.00">odp/helper/version.h</text>
</a>
</g>
</g>
<!-- Node1&#45;&gt;Node31 -->
<g id="edge52" class="edge">
<title>Node1&#45;&gt;Node31</title>
<path fill="none" stroke="midnightblue" d="M1000.73,-188.01C1148.77,-187.77 1735.06,-184.19 2227.28,-143.01"/>
<polygon fill="midnightblue" stroke="midnightblue" points="2227.76,-146.48 2237.43,-142.15 2227.17,-139.51 2227.76,-146.48"/>
</g>
<!-- Node3&#45;&gt;Node2 -->
<g id="edge3" class="edge">
<title>Node3&#45;&gt;Node2</title>
<path fill="none" stroke="midnightblue" d="M101.87,-123.32C117.05,-105.42 152.23,-63.97 174.02,-38.28"/>
<polygon fill="midnightblue" stroke="midnightblue" points="176.78,-40.43 180.58,-30.55 171.44,-35.91 176.78,-40.43"/>
</g>
<!-- Node4 -->
<g id="node4" class="node">
<title>Node4</title>
<g id="a_node4"><a xlink:title=" ">
<polygon fill="white" stroke="#bfbfbf" points="71.5,-67.5 71.5,-86.5 121.5,-86.5 121.5,-67.5 71.5,-67.5"/>
<text text-anchor="middle" x="96.5" y="-74.5" font-family="Helvetica,sans-Serif" font-size="10.00">stdio.h</text>
</a>
</g>
</g>
<!-- Node3&#45;&gt;Node4 -->
<g id="edge4" class="edge">
<title>Node3&#45;&gt;Node4</title>
<path fill="none" stroke="midnightblue" d="M94.83,-123.08C95.09,-116.01 95.47,-105.86 95.8,-96.99"/>
<polygon fill="midnightblue" stroke="midnightblue" points="99.3,-96.87 96.18,-86.75 92.31,-96.61 99.3,-96.87"/>
</g>
<!-- Node5 -->
<g id="node5" class="node">
<title>Node5</title>
<g id="a_node5"><a xlink:title=" ">
<polygon fill="white" stroke="#bfbfbf" points="0,-67.5 0,-86.5 53,-86.5 53,-67.5 0,-67.5"/>
<text text-anchor="middle" x="26.5" y="-74.5" font-family="Helvetica,sans-Serif" font-size="10.00">stdlib.h</text>
</a>
</g>
</g>
<!-- Node3&#45;&gt;Node5 -->
<g id="edge5" class="edge">
<title>Node3&#45;&gt;Node5</title>
<path fill="none" stroke="midnightblue" d="M83.57,-123.32C73.33,-115.18 57.78,-102.84 45.5,-93.09"/>
<polygon fill="midnightblue" stroke="midnightblue" points="47.63,-90.31 37.62,-86.83 43.28,-95.79 47.63,-90.31"/>
</g>
<!-- Node7 -->
<g id="node7" class="node">
<title>Node7</title>
<g id="a_node7"><a xlink:title=" ">
<polygon fill="white" stroke="#bfbfbf" points="746.5,-6 746.5,-25 810.5,-25 810.5,-6 746.5,-6"/>
<text text-anchor="middle" x="778.5" y="-13" font-family="Helvetica,sans-Serif" font-size="10.00">odp_api.h</text>
</a>
</g>
</g>
<!-- Node6&#45;&gt;Node7 -->
<g id="edge7" class="edge">
<title>Node6&#45;&gt;Node7</title>
<path fill="none" stroke="midnightblue" d="M428.1,-67.48C511.57,-55.33 662.72,-33.34 736.17,-22.66"/>
<polygon fill="midnightblue" stroke="midnightblue" points="737.03,-26.07 746.42,-21.17 736.02,-19.14 737.03,-26.07"/>
</g>
<!-- Node8&#45;&gt;Node9 -->
<g id="edge9" class="edge">
<title>Node8&#45;&gt;Node9</title>
<path fill="none" stroke="midnightblue" d="M1927.37,-123.44C1887.85,-114.08 1824.4,-99.06 1781.39,-88.87"/>
<polygon fill="midnightblue" stroke="midnightblue" points="1782,-85.42 1771.46,-86.52 1780.38,-92.23 1782,-85.42"/>
</g>
<!-- Node10 -->
<g id="node10" class="node">
<title>Node10</title>
<g id="a_node10"><a xlink:title=" ">
<polygon fill="white" stroke="#bfbfbf" points="1576,-6 1576,-25 1629,-25 1629,-6 1576,-6"/>
<text text-anchor="middle" x="1602.5" y="-13" font-family="Helvetica,sans-Serif" font-size="10.00">stdint.h</text>
</a>
</g>
</g>
<!-- Node9&#45;&gt;Node10 -->
<g id="edge10" class="edge">
<title>Node9&#45;&gt;Node10</title>
<path fill="none" stroke="midnightblue" d="M1716.44,-67.48C1694.03,-57.45 1656.59,-40.7 1630.79,-29.15"/>
<polygon fill="midnightblue" stroke="midnightblue" points="1632.08,-25.9 1621.52,-25.01 1629.22,-32.29 1632.08,-25.9"/>
</g>
<!-- Node9&#45;&gt;Node11 -->
<g id="edge11" class="edge">
<title>Node9&#45;&gt;Node11</title>
<path fill="none" stroke="midnightblue" d="M1759.86,-67.48C1789.14,-57.22 1838.47,-39.96 1871.5,-28.4"/>
<polygon fill="midnightblue" stroke="midnightblue" points="1872.91,-31.62 1881.19,-25.01 1870.59,-25.01 1872.91,-31.62"/>
</g>
<!-- Node12&#45;&gt;Node7 -->
<g id="edge13" class="edge">
<title>Node12&#45;&gt;Node7</title>
<path fill="none" stroke="midnightblue" d="M630.29,-67.48C660.09,-57.22 710.29,-39.96 743.9,-28.4"/>
<polygon fill="midnightblue" stroke="midnightblue" points="745.44,-31.57 753.76,-25.01 743.16,-24.95 745.44,-31.57"/>
</g>
<!-- Node13&#45;&gt;Node7 -->
<g id="edge15" class="edge">
<title>Node13&#45;&gt;Node7</title>
<path fill="none" stroke="midnightblue" d="M727.95,-67.48C737.07,-58.28 751.77,-43.46 762.98,-32.16"/>
<polygon fill="midnightblue" stroke="midnightblue" points="765.51,-34.57 770.06,-25.01 760.54,-29.65 765.51,-34.57"/>
</g>
<!-- Node14&#45;&gt;Node9 -->
<g id="edge17" class="edge">
<title>Node14&#45;&gt;Node9</title>
<path fill="none" stroke="midnightblue" d="M1579.81,-123.44C1611.34,-114.24 1661.63,-99.56 1696.49,-89.39"/>
<polygon fill="midnightblue" stroke="midnightblue" points="1697.7,-92.68 1706.32,-86.52 1695.74,-85.96 1697.7,-92.68"/>
</g>
<!-- Node15&#45;&gt;Node7 -->
<g id="edge19" class="edge">
<title>Node15&#45;&gt;Node7</title>
<path fill="none" stroke="midnightblue" d="M829.05,-67.48C819.93,-58.28 805.23,-43.46 794.02,-32.16"/>
<polygon fill="midnightblue" stroke="midnightblue" points="796.46,-29.65 786.94,-25.01 791.49,-34.57 796.46,-29.65"/>
</g>
<!-- Node16&#45;&gt;Node7 -->
<g id="edge21" class="edge">
<title>Node16&#45;&gt;Node7</title>
<path fill="none" stroke="midnightblue" d="M934.42,-67.48C902.93,-57.18 849.8,-39.81 814.44,-28.25"/>
<polygon fill="midnightblue" stroke="midnightblue" points="815.12,-24.79 804.53,-25.01 812.95,-31.44 815.12,-24.79"/>
</g>
<!-- Node17&#45;&gt;Node6 -->
<g id="edge24" class="edge">
<title>Node17&#45;&gt;Node6</title>
<path fill="none" stroke="midnightblue" d="M507.51,-123.44C479.8,-114.32 435.75,-99.81 404.88,-89.65"/>
<polygon fill="midnightblue" stroke="midnightblue" points="405.96,-86.32 395.36,-86.52 403.77,-92.97 405.96,-86.32"/>
</g>
<!-- Node17&#45;&gt;Node7 -->
<g id="edge23" class="edge">
<title>Node17&#45;&gt;Node7</title>
<path fill="none" stroke="midnightblue" d="M516.42,-123.46C493.92,-111.11 459.14,-87.5 476.5,-67 509.31,-28.25 661.29,-19.21 736.34,-17.12"/>
<polygon fill="midnightblue" stroke="midnightblue" points="736.49,-20.62 746.4,-16.87 736.32,-13.62 736.49,-20.62"/>
</g>
<!-- Node18 -->
<g id="node18" class="node">
<title>Node18</title>
<g id="a_node18"><a xlink:title=" ">
<polygon fill="white" stroke="#bfbfbf" points="486,-67.5 486,-86.5 539,-86.5 539,-67.5 486,-67.5"/>
<text text-anchor="middle" x="512.5" y="-74.5" font-family="Helvetica,sans-Serif" font-size="10.00">string.h</text>
</a>
</g>
</g>
<!-- Node17&#45;&gt;Node18 -->
<g id="edge25" class="edge">
<title>Node17&#45;&gt;Node18</title>
<path fill="none" stroke="midnightblue" d="M530.03,-123.08C527.19,-115.77 523.07,-105.18 519.54,-96.1"/>
<polygon fill="midnightblue" stroke="midnightblue" points="522.79,-94.8 515.9,-86.75 516.27,-97.34 522.79,-94.8"/>
</g>
<!-- Node19&#45;&gt;Node7 -->
<g id="edge27" class="edge">
<title>Node19&#45;&gt;Node7</title>
<path fill="none" stroke="midnightblue" d="M982.59,-123.3C1004.62,-110.96 1038.23,-87.57 1021.5,-67 996.64,-36.45 883.36,-23.78 820.62,-19.03"/>
<polygon fill="midnightblue" stroke="midnightblue" points="820.86,-15.54 810.64,-18.31 820.36,-22.52 820.86,-15.54"/>
</g>
<!-- Node21&#45;&gt;Node9 -->
<g id="edge31" class="edge">
<title>Node21&#45;&gt;Node9</title>
<path fill="none" stroke="midnightblue" d="M1430.02,-123.44C1496.19,-113.6 1604.48,-97.49 1672.78,-87.33"/>
<polygon fill="midnightblue" stroke="midnightblue" points="1673.59,-90.75 1682.97,-85.82 1672.56,-83.82 1673.59,-90.75"/>
</g>
<!-- Node21&#45;&gt;Node10 -->
<g id="edge30" class="edge">
<title>Node21&#45;&gt;Node10</title>
<path fill="none" stroke="midnightblue" d="M1427.85,-123.47C1459.73,-116.86 1499.67,-105.6 1531.5,-87 1555.29,-73.1 1576.86,-49.36 1589.82,-33.31"/>
<polygon fill="midnightblue" stroke="midnightblue" points="1592.69,-35.32 1596.1,-25.29 1587.18,-31.01 1592.69,-35.32"/>
</g>
<!-- Node22&#45;&gt;Node9 -->
<g id="edge33" class="edge">
<title>Node22&#45;&gt;Node9</title>
<path fill="none" stroke="midnightblue" d="M1735.5,-123.08C1735.5,-116.01 1735.5,-105.86 1735.5,-96.99"/>
<polygon fill="midnightblue" stroke="midnightblue" points="1739,-96.75 1735.5,-86.75 1732,-96.75 1739,-96.75"/>
</g>
<!-- Node23&#45;&gt;Node7 -->
<g id="edge35" class="edge">
<title>Node23&#45;&gt;Node7</title>
<path fill="none" stroke="midnightblue" d="M1273.28,-123.88C1346.71,-112.01 1474.21,-90.92 1477.5,-87 1483.21,-80.19 1483.55,-73.51 1477.5,-67 1432.73,-18.88 965.49,-16.01 820.9,-16.29"/>
<polygon fill="midnightblue" stroke="midnightblue" points="820.65,-12.79 810.66,-16.32 820.67,-19.79 820.65,-12.79"/>
</g>
<!-- Node24&#45;&gt;Node7 -->
<g id="edge38" class="edge">
<title>Node24&#45;&gt;Node7</title>
<path fill="none" stroke="midnightblue" d="M268.79,-123.17C269.79,-108.85 274.01,-80.77 291.5,-67 326.11,-39.75 624.04,-23.52 736.11,-18.33"/>
<polygon fill="midnightblue" stroke="midnightblue" points="736.53,-21.81 746.36,-17.86 736.21,-14.82 736.53,-21.81"/>
</g>
<!-- Node25&#45;&gt;Node7 -->
<g id="edge43" class="edge">
<title>Node25&#45;&gt;Node7</title>
<path fill="none" stroke="midnightblue" d="M1154.32,-124.05C1157.08,-123.69 1159.82,-123.34 1162.5,-123 1228.67,-114.56 1416.25,-136.91 1460.5,-87 1466.4,-80.35 1466.55,-73.51 1460.5,-67 1416.95,-20.11 963.01,-16.38 820.83,-16.37"/>
<polygon fill="midnightblue" stroke="midnightblue" points="820.75,-12.87 810.75,-16.38 820.76,-19.87 820.75,-12.87"/>
</g>
<!-- Node26 -->
<g id="node26" class="node">
<title>Node26</title>
<g id="a_node26"><a xlink:href="deprecated_8h.html" target="_top" xlink:title=" ">
<polygon fill="white" stroke="black" points="1145,-67.5 1145,-86.5 1280,-86.5 1280,-67.5 1145,-67.5"/>
<text text-anchor="middle" x="1212.5" y="-74.5" font-family="Helvetica,sans-Serif" font-size="10.00">odp/helper/deprecated.h</text>
</a>
</g>
</g>
<!-- Node25&#45;&gt;Node26 -->
<g id="edge41" class="edge">
<title>Node25&#45;&gt;Node26</title>
<path fill="none" stroke="midnightblue" d="M1114.04,-123.44C1133.12,-114.64 1163.07,-100.81 1184.94,-90.72"/>
<polygon fill="midnightblue" stroke="midnightblue" points="1186.43,-93.88 1194.05,-86.52 1183.5,-87.53 1186.43,-93.88"/>
</g>
<!-- Node27 -->
<g id="node27" class="node">
<title>Node27</title>
<g id="a_node27"><a xlink:href="pthread_8h.html" target="_top" xlink:title=" ">
<polygon fill="white" stroke="black" points="1298,-67.5 1298,-86.5 1361,-86.5 1361,-67.5 1298,-67.5"/>
<text text-anchor="middle" x="1329.5" y="-74.5" font-family="Helvetica,sans-Serif" font-size="10.00">pthread.h</text>
</a>
</g>
</g>
<!-- Node25&#45;&gt;Node27 -->
<g id="edge44" class="edge">
<title>Node25&#45;&gt;Node27</title>
<path fill="none" stroke="midnightblue" d="M1127.49,-123.44C1169.23,-113.3 1242.06,-96.49 1288,-86.41"/>
<polygon fill="midnightblue" stroke="midnightblue" points="1288.91,-89.79 1297.94,-84.24 1287.42,-82.95 1288.91,-89.79"/>
</g>
<!-- Node28 -->
<g id="node28" class="node">
<title>Node28</title>
<g id="a_node28"><a xlink:title=" ">
<polygon fill="white" stroke="#bfbfbf" points="1070,-67.5 1070,-86.5 1127,-86.5 1127,-67.5 1070,-67.5"/>
<text text-anchor="middle" x="1098.5" y="-74.5" font-family="Helvetica,sans-Serif" font-size="10.00">getopt.h</text>
</a>
</g>
</g>
<!-- Node25&#45;&gt;Node28 -->
<g id="edge47" class="edge">
<title>Node25&#45;&gt;Node28</title>
<path fill="none" stroke="midnightblue" d="M1096,-123.08C1096.39,-116.01 1096.95,-105.86 1097.45,-96.99"/>
<polygon fill="midnightblue" stroke="midnightblue" points="1100.95,-96.93 1098.01,-86.75 1093.96,-96.54 1100.95,-96.93"/>
</g>
<!-- Node29 -->
<g id="node29" class="node">
<title>Node29</title>
<g id="a_node29"><a xlink:title=" ">
<polygon fill="white" stroke="#bfbfbf" points="1379.5,-67.5 1379.5,-86.5 1451.5,-86.5 1451.5,-67.5 1379.5,-67.5"/>
<text text-anchor="middle" x="1415.5" y="-74.5" font-family="Helvetica,sans-Serif" font-size="10.00">sys/types.h</text>
</a>
</g>
</g>
<!-- Node25&#45;&gt;Node29 -->
<g id="edge48" class="edge">
<title>Node25&#45;&gt;Node29</title>
<path fill="none" stroke="midnightblue" d="M1150.43,-123.48C1205.81,-114.78 1293.71,-100.64 1369.5,-87 1369.6,-86.98 1369.7,-86.96 1369.8,-86.95"/>
<polygon fill="midnightblue" stroke="midnightblue" points="1370.16,-90.44 1379.36,-85.18 1368.89,-83.55 1370.16,-90.44"/>
</g>
<!-- Node26&#45;&gt;Node2 -->
<g id="edge42" class="edge">
<title>Node26&#45;&gt;Node2</title>
<path fill="none" stroke="midnightblue" d="M1144.92,-67.86C1141.74,-67.55 1138.58,-67.26 1135.5,-67 812.2,-39.48 425.2,-24.33 266.2,-18.87"/>
<polygon fill="midnightblue" stroke="midnightblue" points="266.17,-15.37 256.06,-18.52 265.94,-22.36 266.17,-15.37"/>
</g>
<!-- Node27&#45;&gt;Node7 -->
<g id="edge46" class="edge">
<title>Node27&#45;&gt;Node7</title>
<path fill="none" stroke="midnightblue" d="M1297.79,-68.65C1294.66,-68.04 1291.52,-67.48 1288.5,-67 1116.03,-39.63 908.24,-24.54 820.67,-18.99"/>
<polygon fill="midnightblue" stroke="midnightblue" points="820.79,-15.5 810.59,-18.36 820.35,-22.48 820.79,-15.5"/>
</g>
<!-- Node27&#45;&gt;Node25 -->
<g id="edge45" class="edge">
<title>Node27&#45;&gt;Node25</title>
<path fill="none" stroke="midnightblue" d="M1297.68,-86.52C1259,-95.92 1193.46,-111.08 1147.46,-121.28"/>
<polygon fill="midnightblue" stroke="midnightblue" points="1146.68,-117.87 1137.67,-123.44 1148.19,-124.71 1146.68,-117.87"/>
</g>
<!-- Node30&#45;&gt;Node6 -->
<g id="edge51" class="edge">
<title>Node30&#45;&gt;Node6</title>
<path fill="none" stroke="midnightblue" d="M381.19,-123.08C379.33,-115.93 376.66,-105.64 374.35,-96.69"/>
<polygon fill="midnightblue" stroke="midnightblue" points="377.67,-95.55 371.77,-86.75 370.89,-97.31 377.67,-95.55"/>
</g>
<!-- Node30&#45;&gt;Node7 -->
<g id="edge50" class="edge">
<title>Node30&#45;&gt;Node7</title>
<path fill="none" stroke="midnightblue" d="M356.58,-123.45C324.93,-112.07 279.26,-90.6 300.5,-67 329.4,-34.89 624.29,-21.68 735.96,-17.81"/>
<polygon fill="midnightblue" stroke="midnightblue" points="736.3,-21.3 746.18,-17.46 736.06,-14.3 736.3,-21.3"/>
</g>
</g>
</svg>
